<svg width="64" height="60" viewBox="0 0 64 60" fill="none" xmlns="http://www.w3.org/2000/svg">
<path d="M8.06035 55.974C8.06035 53.75 6.25651 51.948 4.03016 51.948C1.80382 51.948 0 53.75 0 55.974C0 58.1981 1.80382 60 4.03016 60C6.25651 60 8.06035 58.1981 8.06035 55.974Z" fill="white"/>
<path d="M8.06035 42.987C8.06035 40.763 6.25651 38.961 4.03016 38.961C1.80382 38.961 0 40.763 0 42.987C0 45.211 1.80382 47.0129 4.03016 47.0129C6.25651 47.0129 8.06035 45.211 8.06035 42.987Z" fill="white"/>
<path d="M8.06035 29.9999C8.06035 27.7759 6.25651 25.9739 4.03016 25.9739C1.80382 25.9739 0 27.7759 0 29.9999C0 32.2239 1.80382 34.0259 4.03016 34.0259C6.25651 34.0259 8.06035 32.2239 8.06035 29.9999Z" fill="white"/>
<path d="M8.06035 17.0131C8.06035 14.7891 6.25651 12.9871 4.03016 12.9871C1.80382 12.9871 0 14.7891 0 17.0131C0 19.2371 1.80382 21.0391 4.03016 21.0391C6.25651 21.0391 8.06035 19.2371 8.06035 17.0131Z" fill="white"/>
<path d="M8.06035 4.02604C8.06035 1.80201 6.25651 4.86374e-05 4.03016 4.86374e-05C1.80382 4.86374e-05 0 1.80201 0 4.02604C0 6.25006 1.80382 8.052 4.03016 8.052C6.25651 8.052 8.06035 6.25006 8.06035 4.02604Z" fill="white"/>
<path d="M21.9549 55.974C21.9549 53.75 20.151 51.948 17.9247 51.948C15.6984 51.948 13.8945 53.75 13.8945 55.974C13.8945 58.1981 15.6984 60 17.9247 60C20.151 60 21.9549 58.1981 21.9549 55.974Z" fill="white"/>
<path d="M21.9549 42.987C21.9549 40.763 20.151 38.961 17.9247 38.961C15.6984 38.961 13.8945 40.763 13.8945 42.987C13.8945 45.211 15.6984 47.0129 17.9247 47.0129C20.151 47.0129 21.9549 45.211 21.9549 42.987Z" fill="white"/>
<path d="M21.9549 29.9999C21.9549 27.7759 20.151 25.9739 17.9247 25.9739C15.6984 25.9739 13.8945 27.7759 13.8945 29.9999C13.8945 32.2239 15.6984 34.0259 17.9247 34.0259C20.151 34.0259 21.9549 32.2239 21.9549 29.9999Z" fill="white"/>
<path d="M17.9247 12.9871C20.1505 12.9871 21.9549 14.7896 21.9549 17.0131C21.9549 19.2366 20.1505 21.0391 17.9247 21.0391C15.6989 21.0391 13.8945 19.2366 13.8945 17.0131C13.8945 14.7896 15.6989 12.9871 17.9247 12.9871Z" fill="white"/>
<path d="M35.8494 55.974C35.8494 53.75 34.0456 51.948 31.8192 51.948C29.5929 51.948 27.7891 53.75 27.7891 55.974C27.7891 58.1981 29.5929 60 31.8192 60C34.0456 60 35.8494 58.1981 35.8494 55.974Z" fill="white"/>
<path d="M35.8494 42.987C35.8494 40.763 34.0456 38.961 31.8192 38.961C29.5929 38.961 27.7891 40.763 27.7891 42.987C27.7891 45.211 29.5929 47.0129 31.8192 47.0129C34.0456 47.0129 35.8494 45.211 35.8494 42.987Z" fill="white"/>
<path d="M35.8494 29.9999C35.8494 27.7759 34.0456 25.9739 31.8192 25.9739C29.5929 25.9739 27.7891 27.7759 27.7891 29.9999C27.7891 32.2239 29.5929 34.0259 31.8192 34.0259C34.0456 34.0259 35.8494 32.2239 35.8494 29.9999Z" fill="white"/>
<path d="M49.7439 55.974C49.7439 53.75 47.9401 51.948 45.7138 51.948C43.4874 51.948 41.6836 53.75 41.6836 55.974C41.6836 58.1981 43.4874 60 45.7138 60C47.9401 60 49.7439 58.1981 49.7439 55.974Z" fill="white"/>
<path d="M49.7439 42.987C49.7439 40.763 47.9401 38.961 45.7138 38.961C43.4874 38.961 41.6836 40.763 41.6836 42.987C41.6836 45.211 43.4874 47.0129 45.7138 47.0129C47.9401 47.0129 49.7439 45.211 49.7439 42.987Z" fill="white"/>
<path d="M63.6541 55.974C63.6541 53.75 61.8503 51.948 59.6239 51.948C57.3976 51.948 55.5938 53.75 55.5938 55.974C55.5938 58.1981 57.3976 60 59.6239 60C61.834 60 63.6541 58.1981 63.6541 55.974Z" fill="white"/>
</svg>
