<svg width="64" height="60" viewBox="0 0 64 60" fill="none" xmlns="http://www.w3.org/2000/svg">
<path d="M55.9452 55.974C55.9452 53.75 57.7478 51.948 59.9726 51.948C62.1974 51.948 64 53.75 64 55.974C64 58.1981 62.1974 60 59.9726 60C57.7478 60 55.9452 58.1981 55.9452 55.974Z" fill="#0056D2"/>
<path d="M55.9452 42.987C55.9452 40.763 57.7478 38.961 59.9726 38.961C62.1974 38.961 64 40.763 64 42.987C64 45.211 62.1974 47.013 59.9726 47.013C57.7478 47.013 55.9452 45.211 55.9452 42.987Z" fill="#0056D2"/>
<path d="M55.9452 30C55.9452 27.776 57.7478 25.974 59.9726 25.974C62.1974 25.974 64 27.776 64 30C64 32.224 62.1974 34.026 59.9726 34.026C57.7478 34.026 55.9452 32.224 55.9452 30Z" fill="#0056D2"/>
<path d="M55.9452 17.013C55.9452 14.789 57.7478 12.987 59.9726 12.987C62.1974 12.987 64 14.789 64 17.013C64 19.237 62.1974 21.039 59.9726 21.039C57.7478 21.039 55.9452 19.237 55.9452 17.013Z" fill="#0056D2"/>
<path d="M55.9452 4.02601C55.9452 1.80198 57.7478 1.81198e-05 59.9726 1.81198e-05C62.1974 1.81198e-05 64 1.80198 64 4.02601C64 6.25003 62.1974 8.05197 59.9726 8.05197C57.7478 8.05197 55.9452 6.25003 55.9452 4.02601Z" fill="#0056D2"/>
<path d="M42.0605 55.974C42.0605 53.75 43.8631 51.948 46.0879 51.948C48.3127 51.948 50.1152 53.75 50.1152 55.974C50.1152 58.1981 48.3127 60 46.0879 60C43.8631 60 42.0605 58.1981 42.0605 55.974Z" fill="#0056D2"/>
<path d="M42.0605 42.987C42.0605 40.763 43.8631 38.961 46.0879 38.961C48.3127 38.961 50.1152 40.763 50.1152 42.987C50.1152 45.211 48.3127 47.013 46.0879 47.013C43.8631 47.013 42.0605 45.211 42.0605 42.987Z" fill="#0056D2"/>
<path d="M42.0605 30C42.0605 27.776 43.8631 25.974 46.0879 25.974C48.3127 25.974 50.1152 27.776 50.1152 30C50.1152 32.224 48.3127 34.026 46.0879 34.026C43.8631 34.026 42.0605 32.224 42.0605 30Z" fill="#0056D2"/>
<path d="M46.0879 12.987C43.8636 12.987 42.0605 14.7895 42.0605 17.013C42.0605 19.2365 43.8636 21.039 46.0879 21.039C48.3121 21.039 50.1152 19.2365 50.1152 17.013C50.1152 14.7895 48.3121 12.987 46.0879 12.987Z" fill="#0056D2"/>
<path d="M28.1757 55.974C28.1757 53.75 29.9783 51.948 32.2031 51.948C34.4279 51.948 36.2305 53.75 36.2305 55.974C36.2305 58.1981 34.4279 60 32.2031 60C29.9783 60 28.1757 58.1981 28.1757 55.974Z" fill="#0056D2"/>
<path d="M28.1757 42.987C28.1757 40.763 29.9783 38.961 32.2031 38.961C34.4279 38.961 36.2305 40.763 36.2305 42.987C36.2305 45.211 34.4279 47.013 32.2031 47.013C29.9783 47.013 28.1757 45.211 28.1757 42.987Z" fill="#0056D2"/>
<path d="M28.1757 30C28.1757 27.776 29.9783 25.974 32.2031 25.974C34.4279 25.974 36.2305 27.776 36.2305 30C36.2305 32.224 34.4279 34.026 32.2031 34.026C29.9783 34.026 28.1757 32.224 28.1757 30Z" fill="#0056D2"/>
<path d="M14.291 55.974C14.291 53.75 16.0935 51.948 18.3183 51.948C20.5431 51.948 22.3457 53.75 22.3457 55.974C22.3457 58.1981 20.5431 60 18.3183 60C16.0935 60 14.291 58.1981 14.291 55.974Z" fill="#0056D2"/>
<path d="M14.291 42.987C14.291 40.763 16.0935 38.961 18.3183 38.961C20.5431 38.961 22.3457 40.763 22.3457 42.987C22.3457 45.211 20.5431 47.013 18.3183 47.013C16.0935 47.013 14.291 45.211 14.291 42.987Z" fill="#0056D2"/>
<path d="M0.390584 55.974C0.390584 53.75 2.19315 51.948 4.41795 51.948C6.64275 51.948 8.44531 53.75 8.44531 55.974C8.44531 58.1981 6.64275 60 4.41795 60C2.20939 60 0.390584 58.1981 0.390584 55.974Z" fill="#0056D2"/>
</svg>
