<svg width="64" height="60" viewBox="0 0 64 60" fill="none" xmlns="http://www.w3.org/2000/svg">
<path d="M55.5546 4.02596C55.5546 6.24999 57.3572 8.05195 59.582 8.05195C61.8068 8.05195 63.6094 6.24999 63.6094 4.02596C63.6094 1.80194 61.8068 0 59.582 0C57.3572 0 55.5546 1.80194 55.5546 4.02596Z" fill="#0056D2"/>
<path d="M55.5546 17.013C55.5546 19.237 57.3572 21.039 59.582 21.039C61.8068 21.039 63.6094 19.237 63.6094 17.013C63.6094 14.789 61.8068 12.9871 59.582 12.9871C57.3572 12.9871 55.5546 14.789 55.5546 17.013Z" fill="#0056D2"/>
<path d="M55.5546 30.0001C55.5546 32.2241 57.3572 34.0261 59.582 34.0261C61.8068 34.0261 63.6094 32.2241 63.6094 30.0001C63.6094 27.7761 61.8068 25.9741 59.582 25.9741C57.3572 25.9741 55.5546 27.7761 55.5546 30.0001Z" fill="#0056D2"/>
<path d="M55.5546 42.9869C55.5546 45.2109 57.3572 47.0129 59.582 47.0129C61.8068 47.0129 63.6094 45.2109 63.6094 42.9869C63.6094 40.7629 61.8068 38.9609 59.582 38.9609C57.3572 38.9609 55.5546 40.7629 55.5546 42.9869Z" fill="#0056D2"/>
<path d="M55.5546 55.974C55.5546 58.198 57.3572 60 59.582 60C61.8068 60 63.6094 58.198 63.6094 55.974C63.6094 53.7499 61.8068 51.948 59.582 51.948C57.3572 51.948 55.5546 53.7499 55.5546 55.974Z" fill="#0056D2"/>
<path d="M41.6699 4.02596C41.6699 6.24999 43.4724 8.05195 45.6972 8.05195C47.922 8.05195 49.7246 6.24999 49.7246 4.02596C49.7246 1.80194 47.922 0 45.6972 0C43.4724 0 41.6699 1.80194 41.6699 4.02596Z" fill="#0056D2"/>
<path d="M41.6699 17.013C41.6699 19.237 43.4724 21.039 45.6972 21.039C47.922 21.039 49.7246 19.237 49.7246 17.013C49.7246 14.789 47.922 12.9871 45.6972 12.9871C43.4724 12.9871 41.6699 14.789 41.6699 17.013Z" fill="#0056D2"/>
<path d="M41.6699 30.0001C41.6699 32.2241 43.4724 34.0261 45.6972 34.0261C47.922 34.0261 49.7246 32.2241 49.7246 30.0001C49.7246 27.7761 47.922 25.9741 45.6972 25.9741C43.4724 25.9741 41.6699 27.7761 41.6699 30.0001Z" fill="#0056D2"/>
<path d="M45.6972 47.0129C43.473 47.0129 41.6699 45.2104 41.6699 42.9869C41.6699 40.7634 43.473 38.9609 45.6972 38.9609C47.9215 38.9609 49.7246 40.7634 49.7246 42.9869C49.7246 45.2104 47.9215 47.0129 45.6972 47.0129Z" fill="#0056D2"/>
<path d="M27.7851 4.02596C27.7851 6.24999 29.5877 8.05195 31.8125 8.05195C34.0373 8.05195 35.8398 6.24999 35.8398 4.02596C35.8398 1.80194 34.0373 0 31.8125 0C29.5877 0 27.7851 1.80194 27.7851 4.02596Z" fill="#0056D2"/>
<path d="M27.7851 17.013C27.7851 19.237 29.5877 21.039 31.8125 21.039C34.0373 21.039 35.8398 19.237 35.8398 17.013C35.8398 14.789 34.0373 12.9871 31.8125 12.9871C29.5877 12.9871 27.7851 14.789 27.7851 17.013Z" fill="#0056D2"/>
<path d="M27.7851 30.0001C27.7851 32.2241 29.5877 34.0261 31.8125 34.0261C34.0373 34.0261 35.8398 32.2241 35.8398 30.0001C35.8398 27.7761 34.0373 25.9741 31.8125 25.9741C29.5877 25.9741 27.7851 27.7761 27.7851 30.0001Z" fill="#0056D2"/>
<path d="M13.9003 4.02596C13.9003 6.24999 15.7029 8.05195 17.9277 8.05195C20.1525 8.05195 21.9551 6.24999 21.9551 4.02596C21.9551 1.80194 20.1525 0 17.9277 0C15.7029 0 13.9003 1.80194 13.9003 4.02596Z" fill="#0056D2"/>
<path d="M13.9003 17.013C13.9003 19.237 15.7029 21.039 17.9277 21.039C20.1525 21.039 21.9551 19.237 21.9551 17.013C21.9551 14.789 20.1525 12.9871 17.9277 12.9871C15.7029 12.9871 13.9003 14.789 13.9003 17.013Z" fill="#0056D2"/>
<path d="M-4.1008e-05 4.02596C-4.1008e-05 6.24999 1.80253 8.05195 4.02732 8.05195C6.25212 8.05195 8.05469 6.24999 8.05469 4.02596C8.05469 1.80194 6.25212 0 4.02732 0C1.81876 0 -4.1008e-05 1.80194 -4.1008e-05 4.02596Z" fill="#0056D2"/>
</svg>
