<svg width="38" height="30" viewBox="0 0 38 30" fill="none" xmlns="http://www.w3.org/2000/svg">
<path d="M37.2098 9.49529C37.2098 14.8731 37.2098 20.2513 37.2098 25.6291C37.092 25.6834 37.1074 25.8088 37.067 25.903C36.7624 26.6114 36.2439 27.047 35.474 27.1755C35.0763 27.2415 34.6755 27.1934 34.2777 27.221C34.0402 27.2374 33.9675 27.1637 33.9701 26.9226C33.9814 25.7479 33.9793 24.5731 33.9711 23.3978C33.9701 23.213 34.0372 23.0794 34.1447 22.9407C35.6767 20.9587 35.8794 18.2801 34.6601 16.1932C33.3605 13.9691 31.0238 12.8117 28.4618 13.2023C26.2306 13.5422 24.633 14.7983 23.7787 16.875C22.9013 19.0065 23.2089 21.0442 24.5818 22.9034C24.72 23.0902 24.7871 23.2632 24.785 23.493C24.7758 24.6074 24.7656 25.7217 24.7901 26.8356C24.7973 27.1663 24.7011 27.2246 24.3909 27.2246C17.0388 27.2154 9.68673 27.2174 2.33466 27.2174C0.820536 27.2159 0 26.3974 0 24.8879C0 17.3664 0 9.8449 0 2.32289C0 0.831289 0.817465 0.00716925 2.30805 0.00716925C10.6532 0.00563362 18.9983 0.008193 27.3434 2.98868e-06C27.6382 -0.000508887 27.7309 0.0644993 27.7288 0.374184C27.7145 2.49386 27.7211 4.61354 27.7216 6.73321C27.7216 7.03573 27.7268 7.33979 27.8071 7.63258C28.1276 8.80017 29.05 9.4912 30.3056 9.49376C32.607 9.49888 34.9084 9.49529 37.2098 9.49529ZM14.7492 6.42609C11.4568 6.42609 8.16441 6.42916 4.87152 6.42046C4.61097 6.41995 4.5086 6.46755 4.52293 6.75369C4.54853 7.26096 4.55108 7.7713 4.52242 8.27805C4.5045 8.59746 4.59408 8.68039 4.91912 8.67936C8.79249 8.66708 12.6658 8.67117 16.5397 8.67117C19.2271 8.67117 21.9144 8.66657 24.6012 8.67783C24.8751 8.67885 24.9519 8.61077 24.9396 8.33743C24.9161 7.81788 24.9171 7.29628 24.9391 6.77672C24.9509 6.49929 24.8812 6.41739 24.5895 6.41841C21.3099 6.43018 18.0293 6.42609 14.7492 6.42609ZM13.1511 15.6782C15.7658 15.6782 18.3799 15.6782 20.9946 15.6782C21.83 15.6782 21.8126 15.6777 21.8371 14.8372C21.8468 14.5091 21.7511 14.4431 21.4363 14.4436C16.0862 14.4538 10.7366 14.4513 5.38647 14.4513C4.52805 14.4513 4.54341 14.4518 4.52242 15.3189C4.51474 15.6342 4.61968 15.6864 4.90889 15.6854C7.65561 15.6736 10.4034 15.6782 13.1511 15.6782ZM9.63043 19.524C11.0468 19.524 12.4631 19.524 13.8795 19.524C14.7476 19.524 14.7328 19.5234 14.7517 18.6369C14.7579 18.3354 14.6565 18.2873 14.3852 18.2883C11.3949 18.2975 8.40448 18.2939 5.41462 18.2939C4.52754 18.2939 4.54392 18.2944 4.5214 19.1656C4.51321 19.4861 4.62224 19.5332 4.90889 19.5306C6.48239 19.5163 8.05641 19.524 9.63043 19.524Z" fill="url(#paint0_linear_47_2026)"/>
<path d="M24.5362 19.2343C24.4272 16.7855 26.5515 14.5051 29.0024 14.3505C31.7445 14.1775 34.0853 16.2281 34.2173 18.9559C34.3448 21.5977 32.2681 23.9067 29.6801 24.0239C26.8535 24.1519 24.6647 22.1136 24.5362 19.2343Z" fill="url(#paint1_linear_47_2026)"/>
<path d="M37.0243 8.26062C34.7736 8.26062 32.4384 8.26779 30.1027 8.2555C29.5309 8.25243 29.0805 7.82194 28.9781 7.25581C28.9633 7.17237 28.9459 7.08791 28.9459 7.00396C28.9443 4.70513 28.9443 2.40681 28.9443 0.180664C31.6281 2.86443 34.341 5.57686 37.0243 8.26062Z" fill="url(#paint2_linear_47_2026)"/>
<path d="M26.0215 29.9999C26.0215 28.0712 26.0215 26.1869 26.0215 24.2705C28.265 25.5927 30.4968 25.5947 32.7547 24.2551C32.7547 25.415 32.7547 26.5248 32.7547 27.6345C32.7547 28.3245 32.7409 29.0151 32.7608 29.7046C32.7695 30.0081 32.6784 30.0107 32.4384 29.9119C31.5124 29.5321 30.5772 29.1737 29.6512 28.7924C29.4577 28.7125 29.3 28.709 29.1066 28.7883C28.1355 29.186 27.1584 29.5689 26.1832 29.9564C26.1408 29.9733 26.0942 29.981 26.0215 29.9999Z" fill="url(#paint3_linear_47_2026)"/>
<defs>
<linearGradient id="paint0_linear_47_2026" x1="18.6049" y1="0" x2="18.6049" y2="27.2246" gradientUnits="userSpaceOnUse">
<stop stop-color="#0254CC"/>
<stop offset="1" stop-color="#112C60"/>
</linearGradient>
<linearGradient id="paint1_linear_47_2026" x1="29.3776" y1="14.3403" x2="29.3776" y2="24.0296" gradientUnits="userSpaceOnUse">
<stop stop-color="#0254CC"/>
<stop offset="1" stop-color="#112C60"/>
</linearGradient>
<linearGradient id="paint2_linear_47_2026" x1="32.9843" y1="0.180664" x2="32.9843" y2="8.2627" gradientUnits="userSpaceOnUse">
<stop stop-color="#0254CC"/>
<stop offset="1" stop-color="#112C60"/>
</linearGradient>
<linearGradient id="paint3_linear_47_2026" x1="29.3914" y1="24.2551" x2="29.3914" y2="29.9999" gradientUnits="userSpaceOnUse">
<stop stop-color="#0254CC"/>
<stop offset="1" stop-color="#112C60"/>
</linearGradient>
</defs>
</svg>
