<svg width="34" height="34" viewBox="0 0 34 34" fill="none" xmlns="http://www.w3.org/2000/svg">
<path d="M33.9582 31.3104C33.7642 31.656 33.6937 32.0544 33.4434 32.3753C32.3432 33.7857 30.5203 33.8809 29.2121 32.5763C26.825 30.1962 24.4379 27.8126 22.0614 25.4149C21.8146 25.1681 21.67 25.1611 21.3738 25.3444C17.407 27.8232 13.2146 28.2428 8.88464 26.4974C5.75354 25.2422 3.42284 23.0313 1.93134 19.9884C0.161277 16.3742 0.0343404 12.6613 1.53642 8.9449C2.81284 5.78206 5.02365 3.41963 8.10539 1.91755C11.7266 0.15454 15.4325 0.0381814 19.1524 1.54379C22.3047 2.82021 24.6741 5.01692 26.148 8.09513C28.2213 12.4286 28.0027 16.7057 25.6579 20.884C25.5098 21.1485 25.5451 21.2754 25.7461 21.4764C27.9075 23.6237 30.0584 25.7816 32.2128 27.9325C32.9215 28.6412 33.6972 29.2971 33.9582 30.3302C33.9582 30.6581 33.9582 30.986 33.9582 31.3104ZM23.1685 14.0259C23.1509 8.99074 19.0396 4.88646 14.0291 4.90761C8.98337 4.92877 4.89672 9.01542 4.90377 14.04C4.91082 19.0716 9.01158 23.1653 14.0432 23.1548C19.036 23.1442 23.1262 19.1562 23.1685 14.0259Z" fill="url(#paint0_linear_47_2009)"/>
<defs>
<linearGradient id="paint0_linear_47_2009" x1="17.2286" y1="0.498047" x2="17.2286" y2="33.4969" gradientUnits="userSpaceOnUse">
<stop stop-color="#0254CC"/>
<stop offset="1" stop-color="#112C60"/>
</linearGradient>
</defs>
</svg>
