<svg width="120" height="33" viewBox="0 0 120 33" fill="none" xmlns="http://www.w3.org/2000/svg">
<path d="M60.1353 7.29565V25.6442C60.1353 25.7853 60.0295 25.9264 59.853 25.9264H57.93C57.0567 25.9264 56.2186 25.4677 55.7246 24.7356L47.062 11.3535L47.3443 18.0313V25.6883C47.3443 25.8294 47.2384 25.9705 47.062 25.9705H44.5479C44.4068 25.9705 44.2656 25.8647 44.2656 25.6883V7.30447C44.2656 7.16333 44.3715 7.02219 44.5479 7.02219H46.4357C47.309 7.02219 48.147 7.47208 48.641 8.21308L57.3036 21.5598L57.0214 14.8821V7.29565C57.0214 7.15451 57.1272 7.01337 57.3036 7.01337H59.8177C60.0295 7.01337 60.1353 7.11922 60.1353 7.29565Z" fill="white"/>
<path d="M85.9198 25.8912H83.2646C83.0882 25.8912 82.947 25.7147 83.0176 25.5383L90.0747 7.26037C90.1453 7.11922 90.2864 7.01337 90.4276 7.01337H93.7797C93.9561 7.01337 94.0973 7.11922 94.1325 7.26037L101.225 25.5383C101.296 25.7147 101.154 25.8912 100.978 25.8912H98.3227C98.2168 25.8912 98.111 25.8206 98.0757 25.7147L92.3771 10.6919C92.3065 10.4802 91.9625 10.4802 91.8919 10.6919L86.1933 25.7147C86.1227 25.8206 86.0169 25.8912 85.911 25.8912H85.9198Z" fill="white"/>
<path d="M119.742 25.4683L114.431 18.6935C117.439 18.1377 119.186 16.1088 119.186 12.9949C119.186 9.43101 116.884 7.02277 112.755 7.02277H105.345C105.133 7.02277 104.957 7.19919 104.957 7.41091C104.957 8.80469 106.077 9.92501 107.471 9.92501H112.464C114.943 9.92501 116.134 11.1865 116.134 13.039C116.134 14.8915 114.978 16.1529 112.464 16.1529H105.407C105.195 16.1529 105.019 16.3293 105.019 16.5411V25.6271C105.019 25.7682 105.125 25.9094 105.301 25.9094H107.815C107.956 25.9094 108.097 25.8035 108.097 25.6271V18.8875H111L115.613 24.8949C116.098 25.5565 116.875 25.9094 117.713 25.9094H119.636C119.777 25.9094 119.883 25.6624 119.742 25.486V25.4683Z" fill="white"/>
<path d="M77.9544 7.02277H66.2484C66.0367 7.02277 65.8955 7.16391 65.8955 7.37562C65.8955 8.7694 67.0511 9.92501 68.4449 9.92501H77.9455C78.0867 9.92501 78.2278 9.81915 78.2278 9.64272V7.26977C78.1925 7.12862 78.0867 7.02277 77.9455 7.02277H77.9544ZM77.9544 22.9895H69.2212C69.08 22.9895 68.9389 22.8836 68.9389 22.7072V17.9878C68.9389 17.8466 69.0447 17.7055 69.2212 17.7055H77.2928C77.4339 17.7055 77.575 17.5996 77.575 17.4232V15.0502C77.575 14.9091 77.4692 14.768 77.2928 14.768H66.2836C66.0719 14.768 65.8955 14.9444 65.8955 15.1561V25.4595C65.8955 25.6712 66.0719 25.8476 66.2836 25.8476H77.9544C78.0955 25.8476 78.2366 25.7418 78.2366 25.5653V23.1924C78.2014 23.0865 78.0955 22.9807 77.9544 22.9807V22.9895Z" fill="white"/>
<path d="M25.5378 2.33844L18.9658 12.0861C18.5159 12.7477 19.3892 13.5504 20.0156 12.9947L26.4816 7.36663C26.6581 7.22549 26.9051 7.33135 26.9051 7.57835V25.1506C26.9051 25.3976 26.5875 25.5034 26.4464 25.327L6.8805 1.91501C6.25418 1.14755 5.34558 0.724121 4.33112 0.724121H3.63423C1.81702 0.724121 0.317383 2.22376 0.317383 4.07625V28.8114C0.317383 30.6639 1.81702 32.1636 3.66951 32.1636C4.82512 32.1636 5.91015 31.5725 6.53647 30.5581L13.1084 20.8104C13.5583 20.1488 12.685 19.3461 12.0587 19.9018L5.59258 25.4946C5.41615 25.6357 5.16915 25.5299 5.16915 25.2829V7.74595C5.16915 7.49895 5.48672 7.3931 5.61904 7.56952L25.1849 30.9815C25.8112 31.749 26.7551 32.1724 27.7343 32.1724H28.4312C30.2837 32.1724 31.7833 30.6728 31.7833 28.8203V4.08507C31.748 2.23258 30.2484 0.732942 28.3959 0.732942C27.2403 0.732942 26.1553 1.32398 25.5289 2.33844H25.5378Z" fill="white"/>
</svg>
