<svg width="42" height="30" viewBox="0 0 42 30" fill="none" xmlns="http://www.w3.org/2000/svg">
<path d="M0 9.35142C0.286649 8.80319 0.790191 8.55033 1.33297 8.31599C7.62398 5.59992 13.9117 2.87512 20.1951 0.142696C20.715 -0.0840071 21.1749 -0.0229716 21.6774 0.196102C27.6131 2.77812 33.5542 5.34706 39.4932 7.92035C40.0153 8.14597 40.5417 8.36395 41.0518 8.61463C41.5193 8.8446 41.7526 9.25114 41.7493 9.76885C41.745 10.2855 41.5052 10.6713 41.0387 10.9165C40.752 11.0669 40.5177 11.056 40.3531 10.7487C40.145 10.3596 39.7973 10.2255 39.3842 10.1732C35.6272 9.69256 31.8714 9.20537 28.1144 8.72144C25.7722 8.41953 23.4289 8.11545 21.0856 7.81899C20.3183 7.72199 19.6545 8.23861 19.5771 8.96994C19.5008 9.6882 20.0153 10.3138 20.7673 10.4108C25.2501 10.9874 29.7341 11.5618 34.2169 12.1372C35.2534 12.2702 36.2888 12.413 37.3264 12.5383C37.7166 12.5852 37.8463 12.7825 37.8463 13.165C37.8387 17.8669 37.842 22.5699 37.8398 27.2719C37.8398 28.0991 37.2894 28.6844 36.5308 28.6822C35.7864 28.68 35.2327 28.0795 35.2316 27.2544C35.2294 22.8239 35.2305 18.3934 35.2305 13.9629C35.2305 13.8146 35.2305 13.6653 35.2305 13.5225C35.0638 13.4604 34.9515 13.5683 34.8349 13.6184C30.485 15.5018 26.1341 17.383 21.794 19.286C21.1619 19.5629 20.6071 19.565 19.9695 19.2871C13.6523 16.5307 7.32643 13.7928 0.996185 11.0626C0.548229 10.8664 0.255041 10.5514 0 10.1667C0 9.89528 0 9.62281 0 9.35142Z" fill="url(#paint0_linear_47_2013)"/>
<path d="M33.9272 20.2322C33.8804 21.1041 34.0384 22.1581 33.8139 23.1913C33.4629 24.7968 32.4929 25.9935 31.2264 26.9744C29.451 28.3499 27.4041 29.1216 25.2286 29.5521C21.5098 30.2878 17.827 30.1461 14.2215 28.9156C12.2837 28.254 10.5234 27.2851 9.18501 25.6796C8.28474 24.5995 7.80518 23.3657 7.8248 21.9412C7.84551 20.5287 7.82807 19.115 7.82916 17.7014C7.83025 17.09 8.04932 16.9472 8.61717 17.1924C12.0962 18.6987 15.5796 20.1952 19.0488 21.721C20.2826 22.2638 21.4717 22.2671 22.7022 21.7265C26.1605 20.2082 29.6297 18.7129 33.0956 17.2088C33.7114 16.9417 33.9262 17.0769 33.9272 17.7363C33.9272 18.5123 33.9272 19.2873 33.9272 20.2322Z" fill="url(#paint1_linear_47_2013)"/>
<defs>
<linearGradient id="paint0_linear_47_2013" x1="20.8747" y1="-0.000488281" x2="20.8747" y2="28.6822" gradientUnits="userSpaceOnUse">
<stop stop-color="#0254CC"/>
<stop offset="1" stop-color="#112C60"/>
</linearGradient>
<linearGradient id="paint1_linear_47_2013" x1="20.8812" y1="17.0786" x2="20.8812" y2="30.0003" gradientUnits="userSpaceOnUse">
<stop stop-color="#0254CC"/>
<stop offset="1" stop-color="#112C60"/>
</linearGradient>
</defs>
</svg>
