<svg width="36" height="30" viewBox="0 0 36 30" fill="none" xmlns="http://www.w3.org/2000/svg">
<path d="M0 27.9933C0 20.995 0 13.9967 0 6.99833C0.0221059 6.97535 0.055791 6.95655 0.0652649 6.93044C0.540014 5.56023 1.32635 5.00253 2.78744 5.00253C5.10856 5.00253 7.42862 4.99731 9.74973 5.00984C10.0297 5.01089 10.0876 4.92838 10.0845 4.66833C10.0697 3.59681 10.0782 2.52529 10.0792 1.45376C10.0792 0.478322 10.555 0 11.5298 0C15.6078 0 19.6858 0 23.7648 0C24.7364 0 25.2133 0.479366 25.2144 1.45585C25.2154 2.52738 25.2238 3.5989 25.208 4.67042C25.2038 4.93569 25.2712 5.01089 25.5459 5.00984C27.9007 4.99836 30.2566 5.00149 32.6114 5.00358C34.2346 5.00462 35.2915 6.04482 35.2925 7.64583C35.2936 14.2222 35.2925 20.7986 35.2946 27.3761C35.2946 27.6633 35.2683 27.9442 35.1851 28.2189C34.8441 29.3426 33.8904 29.9995 32.5924 29.9995C22.6438 30.0006 12.6951 29.9995 2.74639 29.9995C2.62007 29.9995 2.49375 29.9995 2.36743 29.9922C1.35583 29.9369 0.476855 29.2758 0.138951 28.3265C0.0978974 28.2137 0.113687 28.0769 0 27.9933ZM17.6289 5.00358C19.2142 5.00358 20.7995 4.99836 22.3848 5.0088C22.6238 5.01089 22.6974 4.95345 22.6901 4.71011C22.6722 4.06051 22.6785 3.41091 22.688 2.76131C22.6911 2.57228 22.6701 2.48247 22.4353 2.48351C19.2416 2.49187 16.0488 2.49187 12.8551 2.48351C12.6203 2.48247 12.6003 2.57333 12.6035 2.76131C12.613 3.41091 12.6182 4.06051 12.6014 4.71011C12.5951 4.95449 12.6698 5.00984 12.9077 5.0088C14.4825 4.99836 16.0552 5.00358 17.6289 5.00358Z" fill="url(#paint0_linear_47_2020)"/>
<defs>
<linearGradient id="paint0_linear_47_2020" x1="17.6473" y1="0" x2="17.6473" y2="30" gradientUnits="userSpaceOnUse">
<stop stop-color="#0254CC"/>
<stop offset="1" stop-color="#112C60"/>
</linearGradient>
</defs>
</svg>
