<svg width="64" height="60" viewBox="0 0 64 60" fill="none" xmlns="http://www.w3.org/2000/svg">
<path d="M8.05475 4.02596C8.05475 6.24999 6.25216 8.05195 4.02736 8.05195C1.80257 8.05195 0 6.24999 0 4.02596C0 1.80194 1.80257 0 4.02736 0C6.25216 0 8.05475 1.80194 8.05475 4.02596Z" fill="white"/>
<path d="M8.05475 17.013C8.05475 19.237 6.25216 21.039 4.02736 21.039C1.80257 21.039 0 19.237 0 17.013C0 14.7889 1.80257 12.987 4.02736 12.987C6.25216 12.987 8.05475 14.7889 8.05475 17.013Z" fill="white"/>
<path d="M8.05475 30C8.05475 32.224 6.25216 34.026 4.02736 34.026C1.80257 34.026 0 32.224 0 30C0 27.776 1.80257 25.974 4.02736 25.974C6.25216 25.974 8.05475 27.776 8.05475 30Z" fill="white"/>
<path d="M8.05475 42.987C8.05475 45.211 6.25216 47.013 4.02736 47.013C1.80257 47.013 0 45.211 0 42.987C0 40.763 1.80257 38.961 4.02736 38.961C6.25216 38.961 8.05475 40.763 8.05475 42.987Z" fill="white"/>
<path d="M8.05475 55.974C8.05475 58.198 6.25216 60 4.02736 60C1.80257 60 0 58.198 0 55.974C0 53.75 1.80257 51.948 4.02736 51.948C6.25216 51.948 8.05475 53.75 8.05475 55.974Z" fill="white"/>
<path d="M21.9395 4.02596C21.9395 6.24999 20.1369 8.05195 17.9121 8.05195C15.6873 8.05195 13.8848 6.24999 13.8848 4.02596C13.8848 1.80194 15.6873 0 17.9121 0C20.1369 0 21.9395 1.80194 21.9395 4.02596Z" fill="white"/>
<path d="M21.9395 17.013C21.9395 19.237 20.1369 21.039 17.9121 21.039C15.6873 21.039 13.8848 19.237 13.8848 17.013C13.8848 14.7889 15.6873 12.987 17.9121 12.987C20.1369 12.987 21.9395 14.7889 21.9395 17.013Z" fill="white"/>
<path d="M21.9395 30C21.9395 32.224 20.1369 34.026 17.9121 34.026C15.6873 34.026 13.8848 32.224 13.8848 30C13.8848 27.776 15.6873 25.974 17.9121 25.974C20.1369 25.974 21.9395 27.776 21.9395 30Z" fill="white"/>
<path d="M17.9121 47.013C20.1364 47.013 21.9395 45.2105 21.9395 42.987C21.9395 40.7635 20.1364 38.961 17.9121 38.961C15.6879 38.961 13.8848 40.7635 13.8848 42.987C13.8848 45.2105 15.6879 47.013 17.9121 47.013Z" fill="white"/>
<path d="M35.8243 4.02596C35.8243 6.24999 34.0217 8.05195 31.7969 8.05195C29.5721 8.05195 27.7695 6.24999 27.7695 4.02596C27.7695 1.80194 29.5721 0 31.7969 0C34.0217 0 35.8243 1.80194 35.8243 4.02596Z" fill="white"/>
<path d="M35.8243 17.013C35.8243 19.237 34.0217 21.039 31.7969 21.039C29.5721 21.039 27.7695 19.237 27.7695 17.013C27.7695 14.7889 29.5721 12.987 31.7969 12.987C34.0217 12.987 35.8243 14.7889 35.8243 17.013Z" fill="white"/>
<path d="M35.8243 30C35.8243 32.224 34.0217 34.026 31.7969 34.026C29.5721 34.026 27.7695 32.224 27.7695 30C27.7695 27.776 29.5721 25.974 31.7969 25.974C34.0217 25.974 35.8243 27.776 35.8243 30Z" fill="white"/>
<path d="M49.709 4.02596C49.709 6.24999 47.9065 8.05195 45.6817 8.05195C43.4569 8.05195 41.6543 6.24999 41.6543 4.02596C41.6543 1.80194 43.4569 0 45.6817 0C47.9065 0 49.709 1.80194 49.709 4.02596Z" fill="white"/>
<path d="M49.709 17.013C49.709 19.237 47.9065 21.039 45.6817 21.039C43.4569 21.039 41.6543 19.237 41.6543 17.013C41.6543 14.7889 43.4569 12.987 45.6817 12.987C47.9065 12.987 49.709 14.7889 49.709 17.013Z" fill="white"/>
<path d="M63.6094 4.02596C63.6094 6.24999 61.8068 8.05195 59.5821 8.05195C57.3573 8.05195 55.5547 6.24999 55.5547 4.02596C55.5547 1.80194 57.3573 0 59.5821 0C61.7906 0 63.6094 1.80194 63.6094 4.02596Z" fill="white"/>
</svg>
