<svg width="134" height="52" viewBox="0 0 134 52" fill="none" xmlns="http://www.w3.org/2000/svg">
<path d="M72.54 31.2079C72.54 31.2079 72.5847 31.2529 72.591 31.2915C72.591 31.3365 72.591 31.3686 72.5655 31.3943C71.8193 32.2296 70.92 32.9043 69.8994 33.3863C68.8789 33.8618 67.75 34.0995 66.5254 34.0802C65.4283 34.0802 64.3823 33.8682 63.4256 33.4505C62.4689 33.0264 61.6269 32.4481 60.9253 31.7156C60.2237 30.983 59.6688 30.1156 59.2734 29.126C58.8779 28.1365 58.6738 27.0634 58.6738 25.926C58.6738 24.7887 58.8843 23.722 59.2989 22.7453C59.7135 21.7686 60.2875 20.914 60.9955 20.1879C61.7035 19.4682 62.5518 18.8963 63.5213 18.4915C64.4525 18.0995 65.4666 17.9067 66.5381 17.9067H66.653C67.8393 17.9196 68.9491 18.1702 69.9505 18.6393C70.9519 19.1148 71.832 19.7702 72.5528 20.5863C72.5783 20.6184 72.5847 20.6569 72.5847 20.6955C72.5847 20.734 72.5655 20.7598 72.5273 20.7919L70.7605 22.3019C70.7605 22.3019 70.6967 22.334 70.6521 22.334C70.6138 22.334 70.5883 22.3212 70.5564 22.2762C70.0525 21.6915 69.453 21.2224 68.7641 20.8818C68.0753 20.5349 67.3227 20.3678 66.5254 20.3806C65.8047 20.3935 65.1158 20.5541 64.478 20.8561C63.8338 21.1581 63.2725 21.5694 62.8005 22.0834C62.3285 22.5975 61.9522 23.2015 61.678 23.8762C61.4037 24.5509 61.2634 25.2834 61.2634 26.0481C61.2634 26.8128 61.4101 27.5517 61.7035 28.2264C61.9905 28.9011 62.3859 29.4987 62.8707 30.0063C63.3554 30.514 63.9295 30.9188 64.5737 31.2015C65.2179 31.4842 65.9131 31.632 66.6466 31.632C67.412 31.6192 68.1391 31.4393 68.8152 31.0987C69.4849 30.7646 70.0717 30.2955 70.5628 29.7043C70.5883 29.6722 70.6138 29.6593 70.6521 29.6529C70.6776 29.6529 70.7095 29.6529 70.7541 29.6979L72.5273 31.2144L72.54 31.2079Z" fill="white"/>
<path d="M85.3343 31.3044V33.592C85.3343 33.6884 85.2577 33.7719 85.1557 33.7719H75.5119C75.4736 33.7719 75.4417 33.7591 75.4162 33.7334C75.3907 33.7077 75.3779 33.6755 75.3779 33.637V24.7117H83.6823C83.778 24.7117 83.8609 24.7888 83.8609 24.8916V27.1534C83.8609 27.2884 83.8163 27.3141 83.727 27.3141H78.1652C78.0695 27.3141 77.993 27.3912 77.993 27.4876V30.996C77.993 31.0924 78.0695 31.1695 78.1652 31.1695H85.2067C85.245 31.1695 85.2769 31.1824 85.3024 31.2081C85.3279 31.2402 85.3407 31.2659 85.3407 31.3044H85.3343Z" fill="white"/>
<path d="M85.9403 18.3243L84.2819 20.5155C84.1799 20.644 84.0587 20.734 83.9184 20.7854H75.3652V18.3693C75.3652 18.3308 75.378 18.2986 75.4035 18.2729C75.4354 18.2472 75.4609 18.2344 75.4992 18.2344H85.8829C85.9403 18.2344 85.9467 18.2537 85.9594 18.2665C85.9594 18.2729 85.9722 18.2858 85.9339 18.3308L85.9403 18.3243Z" fill="white"/>
<path d="M92.0632 24.7051V33.5854C92.0632 33.6818 92.0377 33.7203 91.9038 33.7203H89.5949C89.5566 33.7203 89.5247 33.7075 89.4992 33.6818C89.4673 33.6561 89.4609 33.624 89.4609 33.5854V24.7051H92.0632Z" fill="white"/>
<path d="M102.919 33.6946C102.919 33.6946 102.888 33.7267 102.868 33.7267H100.024C99.7622 33.7267 99.5518 33.6239 99.3859 33.4183L94.4747 26.9733C94.4046 26.8962 94.4237 26.8641 94.4747 26.7998L98.8374 21.0617C98.8757 21.0102 98.8821 20.9396 98.8565 20.8753C98.8246 20.8175 98.7672 20.7789 98.6971 20.7789H89.4551V18.3115C89.4551 18.2729 89.4678 18.2408 89.4933 18.2151C89.5189 18.1894 89.5508 18.1765 89.589 18.1765H101.427C101.465 18.1765 101.497 18.1894 101.523 18.2151C101.555 18.2472 101.561 18.2729 101.561 18.3115V21.6335C101.561 21.8135 101.503 21.9677 101.389 22.1155L97.8679 26.7613C97.8233 26.8255 97.8233 26.9155 97.8679 26.9733L102.907 33.5982C102.932 33.6432 102.926 33.6625 102.919 33.6817V33.6946Z" fill="white"/>
<path d="M116.39 20.747C116.39 20.747 116.371 20.7791 116.314 20.7791H111.352C111.256 20.7791 111.179 20.8562 111.179 20.9526V33.5405C111.179 33.6369 111.103 33.7205 111.001 33.7205H108.775C108.679 33.7205 108.596 33.6433 108.596 33.5405V20.9526C108.596 20.8562 108.52 20.7791 108.424 20.7791H104.342C104.304 20.7791 104.272 20.7662 104.246 20.7405C104.221 20.7148 104.208 20.6827 104.208 20.6441V18.318C104.208 18.2795 104.221 18.2474 104.246 18.2217C104.272 18.196 104.304 18.1831 104.342 18.1831H114.075C114.337 18.1831 114.541 18.2859 114.707 18.4915L116.371 20.6891C116.403 20.7341 116.397 20.747 116.39 20.7534V20.747Z" fill="white"/>
<path d="M133.414 18.2794L126.513 27.3461C126.513 27.3461 126.481 27.4168 126.481 27.4553V33.5854C126.481 33.624 126.468 33.6561 126.443 33.6818C126.411 33.7139 126.385 33.7204 126.347 33.7204H124.038C123.904 33.7204 123.878 33.6754 123.878 33.5854V27.4553C123.878 27.4168 123.866 27.3782 123.84 27.3461L116.945 18.2794V18.2344H116.933C116.965 18.1766 116.984 18.1766 116.996 18.1766H119.841C120.103 18.1766 120.307 18.2794 120.473 18.485L125.039 24.4738C125.103 24.5573 125.25 24.5573 125.314 24.4738L129.874 18.485C130.046 18.2794 130.25 18.1702 130.512 18.1702H133.356C133.401 18.1702 133.414 18.183 133.427 18.2087C133.439 18.2344 133.439 18.2408 133.407 18.273L133.414 18.2794Z" fill="white"/>
<g clip-path="url(#clip0_47_2018)">
<path d="M17.3947 13.3818L22.5159 18.5411H29.0969V18.5391H29.0949L25.8064 15.2261L20.6862 10.0668C20.6711 10.0515 20.657 10.0373 20.6418 10.0231L20.5965 9.97841C18.7436 8.20411 15.8331 8.18482 13.957 9.92052L17.3836 13.3726C17.3836 13.3726 17.3917 13.3787 17.3947 13.3818Z" fill="white"/>
<path d="M4.71408 26.1573C4.63141 26.0741 4.63141 25.939 4.71408 25.8557L16.2993 14.1852L13.0078 10.8691L1.42258 22.5407C-0.473688 24.4521 -0.474697 27.562 1.42258 29.4734L13.0159 41.152L16.3064 37.836L4.71408 26.1573Z" fill="white"/>
<path d="M37.6527 9.91758C35.7464 8.15648 32.7735 8.20625 30.9266 10.0669L26.751 14.2736L30.0405 17.5876L37.6527 9.91758Z" fill="white"/>
<path d="M50.1903 22.5408L38.602 10.8662L35.3115 14.1812L46.8998 25.8558C46.9401 25.8975 46.9613 25.9482 46.9613 26.0071C46.9613 26.0661 46.9401 26.1158 46.8988 26.1575L35.3125 37.83L38.604 41.1461L50.1903 29.4735C51.1097 28.5472 51.6158 27.3163 51.6158 26.0071C51.6158 24.698 51.1097 23.4661 50.1903 22.5408Z" fill="white"/>
<path d="M26.752 37.7418L30.9266 41.9475C31.845 42.8737 33.0678 43.3836 34.3673 43.3836C35.5962 43.3836 36.7545 42.9275 37.6547 42.0947L30.0435 34.4268L26.752 37.7418Z" fill="white"/>
<path d="M27.5351 33.4903V33.4812H22.5217L13.9648 42.1008C14.8631 42.9296 16.0194 43.3835 17.2463 43.3835C18.5457 43.3835 19.7676 42.8737 20.687 41.9474L25.8072 36.7891H25.8082L29.0826 33.4903H27.5351Z" fill="white"/>
<path d="M23.8077 22.5186L21.8076 26.0082L23.8077 29.4979H27.8079L29.808 26.0082L27.8079 22.5186H23.8077Z" fill="white"/>
</g>
<defs>
<clipPath id="clip0_47_2018">
<rect width="51.6155" height="52" fill="white"/>
</clipPath>
</defs>
</svg>
