<svg width="19" height="19" viewBox="0 0 19 19" fill="none" xmlns="http://www.w3.org/2000/svg">
<g clip-path="url(#clip0_47_1817)">
<path d="M10.2809 8.80268C10.2816 11.6301 7.97925 13.9396 5.15323 13.9446C2.31942 13.9502 -0.000709356 11.6329 1.6269e-07 8.79842C0.000709681 5.97383 2.30381 3.66576 5.13124 3.65725C7.96719 3.64874 10.2802 5.95964 10.2809 8.80268Z" fill="white"/>
<path d="M10.7432 8.95724C10.773 7.50841 10.9681 6.28165 11.6755 5.20318C11.8926 4.87183 12.1892 4.56461 12.512 4.33544C13.0824 3.9303 13.7196 3.94733 14.2624 4.38085C14.6129 4.6604 14.9598 5.01445 15.1521 5.41036C16.281 7.73048 16.276 10.0613 15.0613 12.3551C14.9009 12.6581 14.6377 12.9263 14.3716 13.1498C13.748 13.6727 12.9966 13.6663 12.3495 13.1697C11.7429 12.7035 11.403 12.0536 11.1639 11.3519C11.0248 10.9439 10.922 10.5196 10.851 10.0939C10.7786 9.65896 10.7659 9.21409 10.7432 8.95724Z" fill="white"/>
<path d="M16.3994 8.80335C16.4491 7.67379 16.5044 6.55346 16.7811 5.45655C16.845 5.20183 16.9379 4.94853 17.06 4.71652C17.2338 4.3873 17.4935 4.37595 17.646 4.71084C17.8163 5.08405 17.9554 5.48422 18.0256 5.88723C18.3832 7.94483 18.3811 10.0031 17.9596 12.0544C17.9121 12.2864 17.8461 12.5234 17.7347 12.7298C17.651 12.8845 17.4814 12.9931 17.3502 13.1222C17.2267 12.9959 17.0429 12.8909 16.9912 12.7398C16.84 12.2999 16.6924 11.8479 16.6336 11.3888C16.5222 10.5317 16.4739 9.66612 16.3994 8.80335Z" fill="white"/>
</g>
<defs>
<clipPath id="clip0_47_1817">
<rect width="18.2857" height="18.2857" fill="white"/>
</clipPath>
</defs>
</svg>
