<svg width="24" height="24" viewBox="0 0 24 24" fill="none" xmlns="http://www.w3.org/2000/svg">
<path d="M12.0001 0C7.34054 0 3.5498 3.85031 3.5498 8.58277V15.4175C3.5498 20.1499 7.34054 24 12.0001 24C16.6595 24 20.4505 20.1616 20.4505 15.4437V8.58277C20.4505 3.85031 16.6595 0 12.0001 0ZM18.8611 15.4437C18.8611 19.2853 15.7834 22.4106 12.0001 22.4106C8.2171 22.4106 5.13924 19.2734 5.13924 15.4172V8.58277C5.13924 4.72659 8.2171 1.58939 12.0001 1.58939C15.7835 1.58939 18.8611 4.72659 18.8611 8.58277V15.4437Z" fill="white"/>
<path d="M11.9998 6.56958C11.5609 6.56958 11.2051 6.92536 11.2051 7.3643V10.1458C11.2051 10.5847 11.5609 10.9405 11.9998 10.9405C12.4387 10.9405 12.7945 10.5847 12.7945 10.1458V7.3643C12.7945 6.92536 12.4387 6.56958 11.9998 6.56958Z" fill="white"/>
</svg>
