<svg width="19" height="19" viewBox="0 0 19 19" fill="none" xmlns="http://www.w3.org/2000/svg">
<path d="M15.6802 6.07755C16.3495 5.60235 16.9125 5.00921 17.3712 4.32623V4.32555C16.7589 4.59366 16.1074 4.77195 15.4272 4.85835C16.1266 4.44075 16.6608 3.78452 16.9118 2.99389C16.2597 3.38269 15.5397 3.65698 14.7723 3.81058C14.1531 3.15092 13.2706 2.74292 12.3079 2.74292C10.44 2.74292 8.93623 4.25903 8.93623 6.11732C8.93623 6.38475 8.95886 6.64189 9.01441 6.88669C6.20983 6.74955 3.72755 5.40555 2.05989 3.35732C1.76915 3.86269 1.59772 4.44075 1.59772 5.06269C1.59772 6.23115 2.19909 7.26658 3.09669 7.86658C2.55429 7.85629 2.02286 7.69858 1.57235 7.45103V7.48806C1.57235 9.12761 2.74149 10.4894 4.27543 10.8035C4.00046 10.8789 3.70149 10.9146 3.39086 10.9146C3.17486 10.9146 2.95681 10.9022 2.75246 10.857C3.18926 12.1927 4.43041 13.1754 5.90469 13.2076C4.75681 14.1052 3.29898 14.6462 1.72115 14.6462C1.44481 14.6462 1.17943 14.6339 0.914062 14.6003C2.40892 15.5637 4.17943 16.1143 6.08983 16.1143C12.0439 16.1143 15.9243 11.147 15.6802 6.07755Z" fill="white"/>
</svg>
