<svg width="231" height="90" viewBox="0 0 231 90" fill="none" xmlns="http://www.w3.org/2000/svg">
<path d="M125.406 54.014C125.406 54.014 125.484 54.0918 125.495 54.1586C125.495 54.2364 125.495 54.292 125.45 54.3365C124.16 55.7823 122.606 56.95 120.841 57.7841C119.077 58.6071 117.125 59.0186 115.008 58.9853C113.112 58.9853 111.303 58.6183 109.649 57.8954C107.995 57.1614 106.54 56.1604 105.327 54.8926C104.114 53.6247 103.155 52.1234 102.471 50.4107C101.787 48.698 101.435 46.8407 101.435 44.8722C101.435 42.9037 101.798 41.0576 102.515 39.3671C103.232 37.6766 104.224 36.1975 105.448 34.9408C106.672 33.6952 108.139 32.7054 109.815 32.0047C111.425 31.3263 113.178 30.9927 115.03 30.9927H115.229C117.28 31.0149 119.198 31.4487 120.93 32.2605C122.661 33.0835 124.182 34.2179 125.428 35.6303C125.473 35.6859 125.484 35.7526 125.484 35.8194C125.484 35.8861 125.45 35.9306 125.384 35.9862L122.33 38.5997C122.33 38.5997 122.22 38.6553 122.142 38.6553C122.076 38.6553 122.032 38.6331 121.977 38.5552C121.106 37.5432 120.069 36.7313 118.879 36.1419C117.688 35.5413 116.387 35.2522 115.008 35.2744C113.762 35.2967 112.571 35.5747 111.469 36.0974C110.355 36.6201 109.385 37.3319 108.569 38.2216C107.753 39.1113 107.102 40.1567 106.628 41.3245C106.154 42.4922 105.911 43.7601 105.911 45.0835C105.911 46.4069 106.165 47.6859 106.672 48.8537C107.168 50.0214 107.852 51.0557 108.69 51.9343C109.528 52.8129 110.52 53.5135 111.634 54.0029C112.748 54.4922 113.95 54.748 115.218 54.748C116.541 54.7258 117.798 54.4144 118.967 53.8249C120.125 53.2466 121.139 52.4348 121.988 51.4116C122.032 51.356 122.076 51.3337 122.142 51.3226C122.187 51.3226 122.242 51.3226 122.319 51.4005L125.384 54.0251L125.406 54.014Z" fill="white"/>
<path d="M147.526 54.1808V58.1401C147.526 58.3069 147.394 58.4515 147.217 58.4515H130.545C130.479 58.4515 130.424 58.4292 130.38 58.3847C130.336 58.3402 130.313 58.2846 130.313 58.2179V42.7703H144.67C144.835 42.7703 144.979 42.9037 144.979 43.0817V46.9964C144.979 47.2299 144.902 47.2744 144.747 47.2744H135.132C134.967 47.2744 134.834 47.4079 134.834 47.5747V53.647C134.834 53.8138 134.967 53.9473 135.132 53.9473H147.305C147.372 53.9473 147.427 53.9695 147.471 54.014C147.515 54.0696 147.537 54.1141 147.537 54.1808H147.526Z" fill="white"/>
<path d="M148.573 31.7155L145.706 35.5079C145.53 35.7303 145.32 35.886 145.078 35.975H130.291V31.7934C130.291 31.7266 130.313 31.671 130.357 31.6265C130.412 31.5821 130.456 31.5598 130.523 31.5598H148.474C148.573 31.5598 148.584 31.5932 148.606 31.6154C148.606 31.6265 148.628 31.6488 148.562 31.7266L148.573 31.7155Z" fill="white"/>
<path d="M159.159 42.759V58.1288C159.159 58.2956 159.115 58.3624 158.883 58.3624H154.892C154.826 58.3624 154.77 58.3401 154.726 58.2956C154.671 58.2512 154.66 58.1955 154.66 58.1288V42.759H159.159Z" fill="white"/>
<path d="M177.926 58.3179C177.926 58.3179 177.87 58.3735 177.837 58.3735H172.919C172.467 58.3735 172.104 58.1956 171.817 57.8397L163.326 46.6849C163.205 46.5515 163.238 46.4959 163.326 46.3846L170.869 36.4532C170.935 36.3643 170.946 36.2419 170.902 36.1307C170.846 36.0306 170.747 35.9639 170.626 35.9639H154.648V31.6933C154.648 31.6265 154.67 31.5709 154.715 31.5264C154.759 31.482 154.814 31.4597 154.88 31.4597H175.345C175.411 31.4597 175.467 31.482 175.511 31.5264C175.566 31.5821 175.577 31.6265 175.577 31.6933V37.443C175.577 37.7544 175.478 38.0213 175.279 38.2771L169.192 46.3179C169.115 46.4291 169.115 46.5848 169.192 46.6849L177.903 58.1511C177.948 58.2289 177.937 58.2623 177.926 58.2957V58.3179Z" fill="white"/>
<path d="M201.214 35.9084C201.214 35.9084 201.181 35.964 201.082 35.964H192.503C192.338 35.964 192.205 36.0975 192.205 36.2643V58.0511C192.205 58.2179 192.073 58.3625 191.897 58.3625H188.048C187.883 58.3625 187.74 58.2291 187.74 58.0511V36.2643C187.74 36.0975 187.607 35.964 187.442 35.964H180.385C180.319 35.964 180.264 35.9418 180.219 35.8973C180.175 35.8528 180.153 35.7972 180.153 35.7304V31.7045C180.153 31.6378 180.175 31.5822 180.219 31.5377C180.264 31.4932 180.319 31.4709 180.385 31.4709H197.211C197.664 31.4709 198.016 31.6489 198.303 32.0048L201.181 35.8083C201.236 35.8861 201.225 35.9084 201.214 35.9195V35.9084Z" fill="white"/>
<path d="M230.644 31.6378L218.713 47.3301C218.713 47.3301 218.658 47.4524 218.658 47.5192V58.129C218.658 58.1957 218.636 58.2513 218.592 58.2958C218.537 58.3514 218.493 58.3625 218.427 58.3625H214.435C214.203 58.3625 214.159 58.2847 214.159 58.129V47.5192C214.159 47.4524 214.137 47.3857 214.093 47.3301L202.173 31.6378V31.5599H202.151C202.207 31.4599 202.24 31.4599 202.262 31.4599H207.179C207.632 31.4599 207.984 31.6378 208.271 31.9937L216.166 42.3588C216.276 42.5034 216.53 42.5034 216.64 42.3588L224.524 31.9937C224.822 31.6378 225.175 31.4487 225.627 31.4487H230.545C230.622 31.4487 230.644 31.471 230.666 31.5155C230.688 31.5599 230.688 31.5711 230.633 31.6267L230.644 31.6378Z" fill="white"/>
<g clip-path="url(#clip0_47_1806)">
<path d="M30.0719 23.1608L38.9255 32.0905H50.3026V32.087H50.2991L44.614 26.353L35.7622 17.4233C35.7361 17.397 35.7117 17.3723 35.6856 17.3477L35.6071 17.2704C32.4038 14.1995 27.3723 14.1661 24.1289 17.1702L30.0528 23.145C30.0528 23.145 30.0667 23.1555 30.0719 23.1608Z" fill="white"/>
<path d="M8.14966 45.2724C8.00675 45.1282 8.00675 44.8944 8.14966 44.7503L28.1782 24.5513L22.4879 18.812L2.45934 39.0128C-0.818909 42.321 -0.820652 47.7034 2.45934 51.0116L22.5018 71.2247L28.1904 65.4855L8.14966 45.2724Z" fill="white"/>
<path d="M65.094 17.1651C61.7983 14.1171 56.6587 14.2032 53.4658 17.4235L46.2471 24.7044L51.9339 30.4401L65.094 17.1651Z" fill="white"/>
<path d="M86.7682 39.0129L66.7345 18.8069L61.0459 24.5444L81.0797 44.7504C81.1494 44.8225 81.186 44.9104 81.186 45.0124C81.186 45.1143 81.1494 45.2004 81.0779 45.2725L61.0476 65.475L66.738 71.2143L86.7682 51.0118C88.3577 49.4086 89.2326 47.2782 89.2326 45.0124C89.2326 42.7465 88.3577 40.6143 86.7682 39.0129Z" fill="white"/>
<path d="M46.249 65.322L53.4661 72.6011C55.0538 74.2042 57.1678 75.0866 59.4143 75.0866C61.5388 75.0866 63.5413 74.2974 65.0977 72.856L51.9393 59.5845L46.249 65.322Z" fill="white"/>
<path d="M47.6017 57.9638V57.948H38.9347L24.1416 72.8666C25.6945 74.3009 27.6935 75.0867 29.8145 75.0867C32.061 75.0867 34.1733 74.2042 35.7627 72.6011L44.6145 63.6732H44.6163L50.277 57.9638H47.6017Z" fill="white"/>
<path d="M41.1589 38.9741L37.7012 45.014L41.1589 51.0538H48.0745L51.5322 45.014L48.0745 38.9741H41.1589Z" fill="white"/>
</g>
<defs>
<clipPath id="clip0_47_1806">
<rect width="89.2325" height="90" fill="white"/>
</clipPath>
</defs>
</svg>
