<svg width="207" height="221" viewBox="0 0 207 221" fill="none" xmlns="http://www.w3.org/2000/svg">
<path d="M109.123 191.326L108.794 192.27C104.786 202.12 73.7945 214.992 63.6901 212.267C53.766 209.595 47.3089 199.003 44.3189 188.601C41.7001 179.483 42.4953 167.788 45.8139 164.47C49.1326 161.151 59.2158 153.188 76.1059 154.217C92.7416 155.235 97.9794 162.02 103.122 167.163C109.038 173.09 110.766 185.516 109.123 191.326Z" fill="url(#paint0_linear_47_2225)"/>
<path d="M109.122 191.326L108.793 192.27C108.793 192.27 83.4103 204.654 63.2015 193.807C44.6891 183.883 45.813 164.47 45.813 164.47C49.1316 161.151 59.2148 153.188 76.105 154.217C92.7407 155.235 97.9784 162.02 103.121 167.163C109.037 173.09 110.765 185.516 109.122 191.326Z" fill="#DEE5F1"/>
<path d="M74.3667 163.844C82.7931 163.844 89.624 162.102 89.624 159.953C89.624 157.804 82.7931 156.062 74.3667 156.062C65.9403 156.062 59.1094 157.804 59.1094 159.953C59.1094 162.102 65.9403 163.844 74.3667 163.844Z" fill="#1B4FDB"/>
<path d="M86.1993 160.748C86.1993 162.466 80.7495 163.855 74.0274 163.855C67.3053 163.855 61.8555 162.466 61.8555 160.748C61.8555 159.031 67.3053 157.642 74.0274 157.642C80.7495 157.642 86.1993 159.031 86.1993 160.748Z" fill="#6DFFE5"/>
<path d="M35.507 132.057L26.4205 128.494L24.8301 127.869C24.8407 127.869 24.8407 127.858 24.8407 127.858C25.0315 127.561 28.5622 122.43 32.5277 123.575C36.6097 124.752 35.507 132.057 35.507 132.057Z" fill="#DEE5F1"/>
<path d="M104.978 43.3757C98.8925 43.3757 89.5303 32.6246 89.5303 19.9861C89.5303 11.1752 96.0085 6.29797 101.045 6.29797C106.081 6.29797 111.128 17.4414 111.128 28.85C111.128 40.2691 107.322 43.3757 104.978 43.3757Z" fill="#646DA4"/>
<path d="M122.619 52.155C122.619 52.155 122.439 63.0122 120.827 67.2003C120.605 67.7728 120.361 68.2287 120.085 68.5044C117.784 70.7946 104.054 80.8778 82.0107 80.8778C59.9571 80.8778 42.9821 72.3108 41.2326 68.6528C40.7343 67.6138 40.289 66.5535 39.8967 65.472C32.8035 46.175 41.0736 20.6012 50.4358 13.7731C56.3097 9.47897 84.1525 2.33273 100.767 14.6743C118.378 27.7687 119.756 51.0417 119.756 51.0417L122.619 52.155Z" fill="url(#paint1_linear_47_2225)"/>
<path d="M63.2031 143.762C63.2031 143.762 64.9208 162.529 73.0425 162.529C81.2172 162.529 92.5621 147.039 92.5621 147.039L63.2031 143.762Z" fill="url(#paint2_linear_47_2225)"/>
<path d="M118.346 113.46C118.346 115.877 117.975 126.618 108.104 136.489C99.6325 144.96 87.344 150.633 76.6882 150.633C67.9516 150.633 57.5821 139.829 52.4928 128.261L52.4716 128.229C52.0051 127.169 51.5809 126.098 51.2098 125.027C46.7885 112.325 46.3326 99.3263 49.4074 95.4033C50.2768 94.29 51.2311 93.2721 52.2489 92.3497C53.8075 90.9183 55.5358 89.6884 57.37 88.6493C74.3662 78.9902 101.414 84.7581 105.252 88.204C105.676 88.5857 106.09 88.9992 106.503 89.4339C112.812 96.1243 117.509 108.837 118.24 112.665C118.315 113.004 118.346 113.269 118.346 113.46Z" fill="url(#paint3_linear_47_2225)"/>
<path d="M120.829 67.2105C120.606 67.783 120.363 68.239 120.087 68.5146C117.786 70.8048 104.056 80.888 82.0125 80.888C59.9588 80.888 42.9838 72.321 41.2344 68.6631C40.7361 67.624 40.2907 66.5637 39.8984 65.4822C39.8984 65.4822 46.2707 69.6597 54.7211 68.8221C63.182 67.9845 96.8669 58.5693 120.829 67.2105Z" fill="#878BC4"/>
<path d="M101.426 74.9296C101.426 77.1668 93.3677 78.9799 83.4224 78.9799C73.477 78.9799 65.4189 77.1668 65.4189 74.9296C65.4189 72.6925 73.477 70.8794 83.4224 70.8794C93.3571 70.89 101.426 72.7031 101.426 74.9296Z" fill="#1B4FDB"/>
<path d="M82.5308 77.803C90.6292 77.803 97.1943 76.3267 97.1943 74.5056C97.1943 72.6844 90.6292 71.2081 82.5308 71.2081C74.4323 71.2081 67.8672 72.6844 67.8672 74.5056C67.8672 76.3267 74.4323 77.803 82.5308 77.803Z" fill="#85DEDA"/>
<path d="M67.8672 74.5056C67.8672 74.5056 73.2216 87.6318 82.5308 87.6318C91.9036 87.6318 97.1943 74.5056 97.1943 74.5056C93.9499 70.2327 70.5285 70.0101 67.8672 74.5056Z" fill="url(#paint4_linear_47_2225)"/>
<path d="M118.348 113.46C113.746 118.062 88.4478 120.871 77.6543 115.05C66.8607 109.24 57.3818 88.639 57.3818 88.639C74.378 78.9799 101.426 84.7478 105.253 88.1936C112.187 94.4281 117.468 108.572 118.252 112.644L118.348 113.46Z" fill="#DEE5F1"/>
<path d="M42.782 40.8523C49.4935 40.8523 59.7994 29.0091 59.7994 15.0877C59.7994 5.36498 52.6637 0 47.1079 0C41.5521 0 36.0068 12.278 36.0068 24.8422C36.0068 37.417 40.1949 40.8523 42.782 40.8523Z" fill="#646DA4"/>
<path d="M53.5319 19.9228C53.1184 25.574 51.1251 31.1404 48.6122 34.809C46.7462 37.5551 44.5832 39.2303 42.5899 39.0819C37.9247 38.732 36.7266 25.7649 37.2355 18.8519C37.8293 10.9422 42.0279 0.763611 46.8734 0.763611C49.5241 0.763611 51.7719 4.45336 52.8851 9.66991C53.5319 12.7235 53.8076 16.286 53.5319 19.9228Z" fill="#1B4BBF"/>
<path d="M53.533 19.9224C53.1195 25.5737 51.1262 31.1401 48.6134 34.8087C45.793 32.3488 45.072 25.6373 45.4961 21.7249C45.9945 17.1127 49.0587 11.3766 52.8969 9.68018C53.533 12.7232 53.8087 16.2857 53.533 19.9224Z" fill="#7CFFBF"/>
<path d="M31.0765 187.838L-4.01855 184.827C-3.62625 181.275 -3.00069 177.744 -2.16308 174.277V174.256C3.04287 152.51 16.01 133.319 24.8315 127.869C24.8421 127.869 24.8421 127.858 24.8421 127.858C27.1641 126.427 29.1998 125.939 30.7266 126.618C32.879 127.572 34.4376 129.48 35.5084 132.057C42.0397 147.675 31.0765 187.838 31.0765 187.838Z" fill="url(#paint5_linear_47_2225)"/>
<path d="M-4.02009 184.827C-6.46932 190.616 0.443665 194.465 11.2372 195.568C22.0308 196.66 30.0571 191.814 31.0644 187.838C32.0716 183.862 24.3316 177.564 13.4744 177.564C2.61722 177.564 -2.56751 181.392 -4.02009 184.827Z" fill="#646DA4"/>
<path d="M52.4942 128.261L52.473 128.229L48.0941 120.765C48.0941 120.765 41.1069 105.38 48.7196 93.3675V93.3569C48.7196 93.3569 52.0489 90.2715 57.3715 88.6493C57.3715 88.6493 57.7001 89.3491 58.1455 90.6108C60.1918 96.2939 64.6979 113.311 52.4942 128.261Z" fill="#646DA4"/>
<path d="M52.1321 118.761C50.9764 120.383 49.598 120.924 48.718 120.595C46.7035 119.832 41.4551 101.563 48.718 93.3569C48.718 93.3569 49.2269 93.7386 49.9373 94.7458C51.1778 96.4953 53.0227 100.121 53.9027 106.886C54.6979 112.876 53.5953 116.693 52.1321 118.761Z" fill="#1B4FDB"/>
<path d="M52.1322 118.761C51.2416 117.87 49.4179 115.792 48.6545 110.83C47.414 102.73 49.9374 94.7458 49.9374 94.7458C51.178 96.4953 53.0228 100.121 53.9029 106.886C54.6981 112.877 53.5954 116.694 52.1322 118.761Z" fill="#85DEDA"/>
<path d="M51.2436 96.9938C51.2436 96.9938 34.5019 114.255 35.647 120.691C36.7921 127.127 53.0991 116.98 53.0991 116.98C53.0991 116.98 55.3257 111 51.2436 96.9938Z" fill="url(#paint6_linear_47_2225)"/>
<path d="M51.2415 96.9938C51.2415 96.9938 41.3704 109.187 42.5049 115.623C43.65 122.059 53.097 116.98 53.097 116.98C53.097 116.98 55.3236 111 51.2415 96.9938Z" fill="url(#paint7_linear_47_2225)"/>
<path d="M0.964035 184.095C0.964035 184.095 14.1538 178.486 22.0423 182.537L25.573 189.704L22.4558 201.706C22.4558 201.706 8.33293 207.559 -4.01925 203L-4.51758 196.352C-4.50698 196.341 -2.60909 189.535 0.964035 184.095Z" fill="#5B5B82"/>
<path d="M24.3644 210.051C24.3644 210.051 28.2768 212.649 33.0481 210.782C33.0481 210.782 34.3204 195.621 24.6507 187.838C24.6507 187.838 21.4169 189.747 21.9364 195.727C22.4559 201.707 24.3644 205.311 24.3644 210.051Z" fill="#A49BC7"/>
<path d="M-4.01889 198.313C-4.01889 198.313 -5.84256 209.838 -4.51722 213.475C-3.19188 217.112 7.52749 218.586 7.52749 218.586L1.99286 197.592C2.00346 197.592 -0.689632 196.341 -4.01889 198.313Z" fill="#A49BC7"/>
<path d="M1.28214 196.659C1.28214 196.659 -1.51698 205.905 1.28214 211.45C4.08126 217.006 8.77827 220.219 8.77827 220.219C8.77827 220.219 14.2599 218.978 14.9809 215.861C15.7019 212.744 9.59468 196.659 9.59468 196.659H1.28214V196.659Z" fill="#A49BC7"/>
<path d="M20.0715 194.306C19.3611 192.418 11.971 192.09 10.0307 195.546C8.0904 199.003 8.8538 213.337 9.34152 213.815C9.82925 214.302 15.4275 217.621 19.1703 215.893C22.9024 214.164 23.4644 209.383 22.8388 207.453C22.2132 205.513 20.697 195.97 20.0715 194.306Z" fill="#AEB8D2"/>
<path d="M9.34064 213.825C9.05436 212.266 15.9567 206.128 22.9652 208.004C22.9652 208.004 24.7782 214.398 18.4802 216.402C12.1822 218.395 9.34064 213.825 9.34064 213.825Z" fill="white"/>
<path d="M111.127 25.8175C111.127 25.8175 93.9186 15.077 69.3626 25.8175C69.3626 25.8175 59.8096 32.105 59.8096 44.3405C59.8096 44.3405 72.501 46.2278 80.3789 42.8773C80.3789 42.8773 87.2919 32.8153 98.9973 32.8153C110.703 32.8153 114.7 44.3405 114.7 44.3405L119.461 46.5353C119.45 46.5353 116.216 30.9068 111.127 25.8175Z" fill="#0B1E7D"/>
<path d="M119.768 51.052C92.4762 40.1842 45.3895 58.4633 45.3895 58.4633C38.784 54.657 40.1836 39.0815 40.1836 39.0815C40.1836 50.1614 46.3968 56.205 46.3968 56.205C94.8194 36.346 119.768 51.052 119.768 51.052Z" fill="#646DA4"/>
<path d="M119.768 51.0521C92.4764 40.1843 45.3896 58.4634 45.3896 58.4634L46.3969 56.2051C94.8196 36.3461 119.768 51.0521 119.768 51.0521Z" fill="#DEE5F1"/>
<path d="M32.5291 123.575L30.7266 126.618C29.2952 126.946 27.8532 127.583 26.4219 128.494C11.6735 137.751 -2.16309 174.277 -2.16309 174.277V174.256C3.04286 152.51 16.01 133.319 24.8315 127.869C24.8421 127.869 24.8421 127.858 24.8421 127.858C25.0329 127.561 28.5636 122.43 32.5291 123.575Z" fill="#DEE5F1"/>
<path d="M106.505 89.4339C84.9175 79.2765 59.736 87.6103 57.3716 88.6493C57.2443 88.7023 57.9653 89.8686 57.9653 89.8686L53.9787 90.6214L48.7197 93.3675V93.3569C48.7197 93.3569 52.049 90.2716 57.3716 88.6493C74.3677 78.9902 101.415 84.7581 105.254 88.204C105.678 88.5857 106.091 88.9992 106.505 89.4339Z" fill="white"/>
<path d="M59.1094 10.0832L59.6713 12.8399C59.6713 12.8399 84.609 4.52736 100.778 14.6848C100.778 14.6848 88.3517 2.7673 59.1094 10.0832Z" fill="white"/>
<path d="M68.5664 31.6173L87.6301 29.6664C87.6301 29.6664 83.2194 37.2898 76.1686 37.2898C69.1178 37.2898 68.5664 31.6173 68.5664 31.6173Z" fill="#85DEDA"/>
<path d="M107.437 30.0801C107.437 30.0801 113.353 31.2252 115.304 32.8792C115.304 32.8792 117.52 37.3217 114.763 37.1627C111.519 36.9719 107.437 30.0801 107.437 30.0801Z" fill="#85DEDA"/>
<path d="M174.278 61.7715C174.278 61.7715 181.293 59.6753 191.622 61.5037C191.622 61.5037 192.359 54.7075 191.078 52.8625C189.788 51.0219 176.13 51.363 176.13 51.363L169.823 59.0939L174.278 61.7715Z" fill="#9C85C2"/>
<path d="M118.347 106.021C118.347 106.021 110.477 106.919 108.667 104.323C106.857 101.727 112.823 95.1665 112.823 95.1665L118.347 106.021Z" fill="#DEE5F1"/>
<path d="M154.292 58.8159L172.18 88.6975C143.13 108.989 113.964 108.901 111.118 102.601C111.011 102.358 110.932 102.103 110.902 101.85C108.629 82.9124 152.813 59.5866 154.253 58.833L154.292 58.8159Z" fill="url(#paint8_linear_47_2225)"/>
<path d="M154.288 58.8056C146.855 63.0231 165.576 90.3331 172.18 88.697C178.784 87.0609 161.066 54.9704 154.288 58.8056Z" fill="white"/>
<path d="M166.747 81.2698C166.747 81.2698 155.506 73.2939 157.492 62.1181C157.492 62.1181 161.69 56.3294 169.199 52.3908C169.199 52.3908 173.107 55.5079 176.051 59.7238C178.996 63.9396 180.542 74.7925 180.542 74.7925C180.542 74.7925 173.12 79.7937 166.747 81.2698Z" fill="#5B5B82"/>
<path d="M164.726 76.9693C165.465 80.944 177.576 79.989 187.18 69.2563C187.18 69.2563 188.674 63.5162 183.556 61.0163C183.56 61.026 162.796 66.5067 164.726 76.9693Z" fill="#A49BC7"/>
<path d="M174.459 57.6457C174.459 57.6457 184.364 52.519 191.465 50.5123C191.465 50.5123 193.528 43.0711 187.872 40.4842C187.872 40.4842 175.692 44.925 169.199 52.3907L174.459 57.6457Z" fill="#A49BC7"/>
<path d="M169.2 52.3907C169.2 52.3907 181.773 43.1266 187.629 42.1579C187.629 42.1579 191.892 43.9578 191.466 50.5123C191.466 50.5123 195.333 43.3741 187.873 40.4842C187.873 40.4842 177.217 43.1025 169.2 52.3907Z" fill="white"/>
<path d="M182.8 61.2466C182.8 61.2466 186.336 65.0963 187.194 69.2617C187.194 69.2617 188.63 63.5474 184.489 60.557L182.8 61.2466Z" fill="white"/>
<defs>
<linearGradient id="paint0_linear_47_2225" x1="75.6896" y1="212.796" x2="76.7125" y2="154.189" gradientUnits="userSpaceOnUse">
<stop stop-color="#9AABCF"/>
<stop offset="1" stop-color="#F2F1F7"/>
</linearGradient>
<linearGradient id="paint1_linear_47_2225" x1="79.4007" y1="80.8535" x2="80.6749" y2="7.85177" gradientUnits="userSpaceOnUse">
<stop stop-color="#9AABCF"/>
<stop offset="1" stop-color="#F2F1F7"/>
</linearGradient>
<linearGradient id="paint2_linear_47_2225" x1="77.879" y1="162.522" x2="77.879" y2="143.758" gradientUnits="userSpaceOnUse">
<stop stop-color="#0B0F27"/>
<stop offset="1" stop-color="#85DEDA"/>
</linearGradient>
<linearGradient id="paint3_linear_47_2225" x1="82.1634" y1="150.726" x2="83.3394" y2="83.3511" gradientUnits="userSpaceOnUse">
<stop stop-color="#9AABCF"/>
<stop offset="1" stop-color="#F2F1F7"/>
</linearGradient>
<linearGradient id="paint4_linear_47_2225" x1="82.5338" y1="87.6252" x2="82.5338" y2="71.2162" gradientUnits="userSpaceOnUse">
<stop stop-color="#0B0F27"/>
<stop offset="1" stop-color="#85DEDA"/>
</linearGradient>
<linearGradient id="paint5_linear_47_2225" x1="16.404" y1="187.578" x2="17.477" y2="126.107" gradientUnits="userSpaceOnUse">
<stop stop-color="#9AABCF"/>
<stop offset="1" stop-color="#F2F1F7"/>
</linearGradient>
<linearGradient id="paint6_linear_47_2225" x1="34.6041" y1="119.747" x2="56.3171" y2="103.971" gradientUnits="userSpaceOnUse">
<stop stop-color="#0B0F27"/>
<stop offset="1" stop-color="#85DEDA"/>
</linearGradient>
<linearGradient id="paint7_linear_47_2225" x1="41.3462" y1="114.847" x2="56.315" y2="103.971" gradientUnits="userSpaceOnUse">
<stop stop-color="#0B0F27"/>
<stop offset="1" stop-color="#85DEDA"/>
</linearGradient>
<linearGradient id="paint8_linear_47_2225" x1="172.035" y1="89.4301" x2="114.908" y2="78.247" gradientUnits="userSpaceOnUse">
<stop stop-color="#9AABCF"/>
<stop offset="1" stop-color="#F2F1F7"/>
</linearGradient>
</defs>
</svg>
