<svg width="246" height="241" viewBox="0 0 246 241" fill="none" xmlns="http://www.w3.org/2000/svg">
<path d="M135.124 195.887L135.578 196.712C140.856 205.241 171.702 212.331 180.67 208.206C189.477 204.159 193.814 193.292 194.957 183.149C195.957 174.258 193.376 163.507 189.767 160.944C186.159 158.38 175.528 152.563 159.984 156.179C144.674 159.745 140.872 166.88 136.9 172.471C132.331 178.915 132.681 190.742 135.124 195.887Z" fill="url(#paint0_linear_47_2176)"/>
<path d="M135.123 195.886L135.578 196.712C135.578 196.712 161.131 204.232 178.216 190.963C193.869 178.82 189.767 160.944 189.767 160.944C186.158 158.38 175.528 152.563 159.983 156.179C144.674 159.745 140.872 166.88 136.899 172.471C132.331 178.914 132.68 190.742 135.123 195.886Z" fill="#DEE5F1"/>
<path d="M39.0728 134.47C39.0728 134.47 32.4642 136.471 25.2909 143.284C25.2909 143.284 21.1747 138.322 21.2219 136.204C21.2789 134.085 32.2004 127.245 32.2004 127.245L41.1838 130.045L39.0728 134.47Z" fill="#9C85C2"/>
<path d="M163.116 164.858C155.281 166.185 148.654 165.64 148.316 163.642C147.977 161.643 154.055 158.948 161.891 157.621C169.727 156.294 176.353 156.839 176.692 158.837C177.03 160.836 170.952 163.531 163.116 164.858Z" fill="#1B4FDB"/>
<path d="M151.626 163.842C151.896 165.439 157.183 165.873 163.434 164.814C169.685 163.756 174.534 161.606 174.264 160.009C173.993 158.412 168.707 157.978 162.456 159.037C156.204 160.095 151.355 162.245 151.626 163.842Z" fill="#6DFFE5"/>
<path d="M106.095 140.171C106.095 140.171 112.752 136.782 112.825 133.798C112.898 130.814 104.791 128.758 104.791 128.758L106.095 140.171Z" fill="#DEE5F1"/>
<path d="M194.247 129.18L202.136 124.437L203.517 123.605C203.507 123.606 203.505 123.596 203.505 123.596C203.281 123.35 199.19 119.134 195.683 120.823C192.072 122.56 194.247 129.18 194.247 129.18Z" fill="#DEE5F1"/>
<path d="M115.684 57.652C121.344 56.6937 128.357 45.2219 126.367 33.4692C124.98 25.2758 118.188 21.7604 113.504 22.5533C108.821 23.3463 105.882 34.5035 107.679 45.1125C109.477 55.7313 113.505 58.0209 115.684 57.652Z" fill="#646DA4"/>
<path d="M100.66 68.5937C100.66 68.5937 102.537 78.6617 104.695 82.3025C104.992 82.7998 105.29 83.1854 105.59 83.3984C108.09 85.1658 122.446 92.3804 142.944 88.9097C163.453 85.4373 177.889 74.798 178.94 71.1209C179.24 70.0762 179.487 69.0202 179.681 67.9527C183.239 48.8913 171.522 26.4119 161.741 21.5364C155.602 18.468 128.586 16.2065 115.079 30.2991C100.764 45.2487 103.146 67.1077 103.146 67.1077L100.66 68.5937Z" fill="url(#paint1_linear_47_2176)"/>
<path d="M170.337 144.426C170.337 144.426 171.695 162.148 164.142 163.427C156.54 164.714 143.551 152.095 143.551 152.095L170.337 144.426Z" fill="url(#paint2_linear_47_2176)"/>
<path d="M114.286 124.93C114.667 127.178 116.703 137.107 127.436 144.732C136.648 151.276 148.969 154.616 158.878 152.938C167.002 151.563 174.944 139.883 177.855 128.325L177.87 128.292C178.137 127.233 178.362 126.17 178.539 125.116C180.65 112.608 179.028 100.448 175.551 97.284C174.567 96.3856 173.519 95.5893 172.427 94.8918C170.753 93.8061 168.952 92.9345 167.083 92.2571C149.757 85.951 125.513 95.5733 122.486 99.3821C122.152 99.8038 121.833 100.253 121.516 100.723C116.703 107.938 114.337 120.499 114.259 124.173C114.244 124.501 114.256 124.752 114.286 124.93Z" fill="url(#paint3_linear_47_2176)"/>
<path d="M104.697 82.3122C104.994 82.8096 105.292 83.1952 105.592 83.4081C108.092 85.1756 122.448 92.3902 142.946 88.9195C163.454 85.4471 177.891 74.8078 178.942 71.1307C179.242 70.086 179.489 69.0299 179.683 67.9625C179.683 67.9625 174.415 72.8505 166.425 73.4021C158.425 73.9554 125.619 70.5037 104.697 82.3122Z" fill="#878BC4"/>
<path d="M123.955 86.4351C124.307 88.5155 132.086 88.9328 141.335 87.3668C150.583 85.8009 157.791 82.8462 157.438 80.7658C157.086 78.6854 149.307 78.2681 140.059 79.8341C130.822 81.4082 123.604 84.3646 123.955 86.4351Z" fill="#1B4FDB"/>
<path d="M141.978 86.1322C134.447 87.4073 128.109 87.0681 127.823 85.3746C127.536 83.6811 133.408 81.2746 140.939 79.9995C148.47 78.7244 154.808 79.0635 155.094 80.757C155.381 82.4505 149.509 84.8571 141.978 86.1322Z" fill="#85DEDA"/>
<path d="M155.094 80.757C155.094 80.757 152.182 93.8063 143.525 95.272C134.809 96.7478 127.822 85.3746 127.822 85.3746C130.166 80.8903 151.911 76.9955 155.094 80.757Z" fill="url(#paint4_linear_47_2176)"/>
<path d="M114.286 124.929C119.289 128.484 143.257 127.114 152.378 120.001C161.5 112.899 167.071 92.2489 167.071 92.2489C149.745 85.9428 125.501 95.5651 122.484 99.3722C117.018 106.261 114.334 120.246 114.246 124.155L114.286 124.929Z" fill="#DEE5F1"/>
<path d="M173.123 45.5126C166.882 46.5693 155.434 37.1788 153.242 24.233C151.711 15.1917 157.502 9.07919 162.668 8.20442C167.835 7.32965 174.924 17.874 176.903 29.5577C178.883 41.2513 175.529 45.1053 173.123 45.5126Z" fill="#646DA4"/>
<path d="M159.83 27.7424C161.104 32.9325 163.834 37.795 166.748 40.8108C168.916 43.0706 171.191 44.2879 173.022 43.836C177.305 42.7761 176.377 30.5291 174.815 24.1807C173.018 16.9189 167.511 8.11468 163.005 8.87761C160.54 9.29496 159.031 13.08 158.817 18.1063C158.696 21.0477 159.001 24.404 159.83 27.7424Z" fill="#1B4BBF"/>
<path d="M159.83 27.7424C161.105 32.9325 163.835 37.7949 166.749 40.8107C168.985 38.0792 168.598 31.7245 167.588 28.1531C166.398 23.9426 162.646 19.091 158.809 18.1178C158.697 21.0476 159.001 24.4039 159.83 27.7424Z" fill="#7CFFBF"/>
<path d="M207.152 180.354L239.313 172.028C238.389 168.787 237.251 165.602 235.927 162.51L235.923 162.49C227.658 143.088 212.578 127.283 203.517 123.605C203.507 123.606 203.505 123.596 203.505 123.596C201.121 122.631 199.151 122.498 197.838 123.369C195.987 124.596 194.838 126.616 194.248 129.18C190.633 144.732 207.152 180.354 207.152 180.354Z" fill="url(#paint5_linear_47_2176)"/>
<path d="M239.312 172.028C242.502 177.026 236.679 181.694 226.816 184.418C216.95 187.133 208.724 183.891 207.161 180.352C205.598 176.814 211.804 169.738 221.9 168.029C231.997 166.319 237.421 169.062 239.312 172.028Z" fill="#646DA4"/>
<path d="M53.2573 121.743L54.736 154.557C88.1458 155.401 111.042 140.155 110.003 133.718C109.961 133.471 109.89 133.23 109.782 133.015C101.715 116.936 54.822 121.579 53.2967 121.736L53.2573 121.743Z" fill="url(#paint6_linear_47_2176)"/>
<path d="M53.2559 121.733C61.2969 121.183 60.7823 152.407 54.7363 154.557C48.6903 156.706 45.9283 122.244 53.2559 121.733Z" fill="white"/>
<path d="M177.855 128.325L177.87 128.292L180.766 120.661C180.766 120.661 184.842 105.255 175.871 95.2824L175.869 95.2725C175.869 95.2725 172.288 92.9276 167.083 92.2571C167.083 92.2571 166.887 92.9596 166.672 94.203C165.664 99.81 164.153 116.344 177.855 128.325Z" fill="#646DA4"/>
<path d="M176.694 119.434C178.024 120.76 179.391 121.046 180.158 120.602C181.911 119.575 183.915 101.76 175.869 95.2725C175.869 95.2725 175.456 95.7076 174.954 96.7561C174.076 98.5782 172.931 102.241 173.178 108.67C173.382 114.366 175.008 117.742 176.694 119.434Z" fill="#1B4FDB"/>
<path d="M176.694 119.434C177.382 118.465 178.751 116.246 178.679 111.511C178.558 103.783 174.954 96.7561 174.954 96.7561C174.076 98.5783 172.931 102.241 173.178 108.67C173.382 114.366 175.008 117.742 176.694 119.434Z" fill="#85DEDA"/>
<path d="M174.095 99.0517C174.095 99.0517 192.381 112.467 192.329 118.632C192.278 124.797 175.516 117.929 175.516 117.929C175.516 117.929 172.504 112.719 174.095 99.0517Z" fill="url(#paint7_linear_47_2176)"/>
<path d="M174.095 99.0518C174.095 99.0518 185.194 108.836 185.152 115C185.101 121.165 175.516 117.929 175.516 117.929C175.516 117.929 172.504 112.719 174.095 99.0518Z" fill="url(#paint8_linear_47_2176)"/>
<path d="M234.564 172.133C234.564 172.133 221.415 168.993 214.717 174.002L212.563 181.223L217.351 191.893C217.351 191.893 231.406 195.112 242.174 188.928L241.591 182.667C241.58 182.659 238.743 176.628 234.564 172.133Z" fill="#5B5B82"/>
<path d="M216.89 199.953C216.89 199.953 213.661 202.985 208.93 202.001C208.93 202.001 205.36 188.102 213.127 179.343C213.127 179.343 216.434 180.608 216.893 186.251C217.351 191.893 216.144 195.546 216.89 199.953Z" fill="#A49BC7"/>
<path d="M241.437 184.57C241.437 184.57 244.947 195 244.287 198.591C243.627 202.181 233.891 205.239 233.891 205.239L235.733 184.846C235.723 184.847 238.03 183.26 241.437 184.57Z" fill="#A49BC7"/>
<path d="M236.246 183.866C236.246 183.866 240.305 192.023 238.575 197.621C236.847 203.228 232.985 206.955 232.985 206.955C232.985 206.955 227.692 206.664 226.531 203.879C225.37 201.094 228.516 185.175 228.516 185.175L236.246 183.866Z" fill="#A49BC7"/>
<path d="M218.404 184.636C218.768 182.769 225.588 181.3 227.937 184.208C230.285 187.117 231.832 200.568 231.454 201.088C231.077 201.618 226.394 205.586 222.641 204.568C218.899 203.549 217.623 199.19 217.901 197.297C218.177 195.395 218.085 186.282 218.404 184.636Z" fill="#AEB8D2"/>
<path d="M231.455 201.098C231.476 199.603 224.091 194.981 217.869 197.83C217.869 197.83 217.19 204.061 223.362 204.933C229.532 205.795 231.455 201.098 231.455 201.098Z" fill="white"/>
<path d="M55.1442 145.887C55.1442 145.887 59.8361 133.763 52.4576 126.006C52.4576 126.006 46.1435 123.637 38.187 124.447C38.187 124.447 36.7354 128.932 36.6131 133.78C36.4908 138.629 40.9224 147.97 40.9224 147.97C40.9224 147.97 49.3628 148.042 55.1442 145.887Z" fill="#5B5B82"/>
<path d="M54.495 141.453C55.982 144.964 45.9581 150.515 32.8186 147.07C32.8186 147.07 28.6562 143.333 31.3816 138.703C31.3832 138.713 50.5683 132.219 54.495 141.453Z" fill="#A49BC7"/>
<path d="M36.7846 131.317C36.7846 131.317 26.3251 132.439 19.6954 134.556C19.6954 134.556 14.2004 129.776 17.3029 124.798C17.3029 124.798 29.1948 121.953 38.1873 124.447L36.7846 131.317Z" fill="#A49BC7"/>
<path d="M107.201 42.2926C107.201 42.2926 121.512 29.5953 146.038 35.7167C146.038 35.7167 155.911 40.0594 157.838 51.4374C157.838 51.4374 146.333 55.1907 138.48 53.3155C138.48 53.3155 130.467 45.0471 119.582 46.8901C108.697 48.7332 106.794 60.08 106.794 60.08L102.713 62.8705C102.723 62.8689 103.269 47.8265 107.201 42.2926Z" fill="#0B1E7D"/>
<path d="M103.138 67.1192C126.805 52.716 173.47 62.3002 173.47 62.3002C179.014 57.7205 175.26 43.457 175.26 43.457C177.004 53.7604 172.178 60.3587 172.178 60.3587C124.022 49.5157 103.138 67.1192 103.138 67.1192Z" fill="#646DA4"/>
<path d="M103.138 67.1192C126.806 52.716 173.471 62.3002 173.471 62.3002L172.178 60.3587C124.022 49.5157 103.138 67.1192 103.138 67.1192Z" fill="#DEE5F1"/>
<path d="M195.682 120.823L197.838 123.369C199.22 123.45 200.662 123.814 202.136 124.437C217.308 130.722 235.926 162.51 235.926 162.51L235.923 162.49C227.658 143.088 212.578 127.284 203.517 123.605C203.507 123.606 203.505 123.596 203.505 123.596C203.281 123.35 199.19 119.134 195.682 120.823Z" fill="#DEE5F1"/>
<path d="M121.516 100.723C139.991 87.8783 164.72 91.6631 167.082 92.2571C167.209 92.2864 166.722 93.4845 166.722 93.4845L170.547 93.5568L175.87 95.2824L175.869 95.2726C175.869 95.2726 172.287 92.9276 167.082 92.2571C149.756 85.951 125.512 95.5734 122.485 99.3821C122.151 99.8038 121.832 100.253 121.516 100.723Z" fill="white"/>
<path d="M53.2986 121.746C96.2719 119.531 107.503 132.072 110.013 133.716C109.971 133.47 109.9 133.228 109.792 133.013C101.715 116.936 54.8221 121.579 53.2986 121.746Z" fill="#DEE5F1"/>
<path d="M153.095 19.4707L153.006 22.1227C153.006 22.1227 128.507 18.3192 115.071 30.3106C115.071 30.3106 124.75 17.2718 153.095 19.4707Z" fill="white"/>
<path d="M147.691 40.9848L129.656 42.1723C129.656 42.1723 134.958 48.5669 141.515 47.4567C148.071 46.3466 147.691 40.9848 147.691 40.9848Z" fill="#85DEDA"/>
<path d="M111.303 45.6753C111.303 45.6753 105.981 47.6717 104.428 49.517C104.428 49.517 103.066 53.9971 105.605 53.4151C108.592 52.7268 111.303 45.6753 111.303 45.6753Z" fill="#85DEDA"/>
<path d="M38.1875 124.447C38.1875 124.447 23.4767 123.702 18.3665 125.987C18.3665 125.987 15.9494 129.622 19.6956 134.556C19.6956 134.556 12.9393 130.953 17.3031 124.798C17.3031 124.798 27.0479 121.312 38.1875 124.447Z" fill="white"/>
<path d="M32.0957 138.491C32.0957 138.491 31.3175 143.359 32.81 147.082C32.81 147.082 28.7068 143.334 30.4082 138.827L32.0957 138.491Z" fill="white"/>
<defs>
<linearGradient id="paint0_linear_47_2176" x1="169.594" y1="210.587" x2="159.415" y2="156.248" gradientUnits="userSpaceOnUse">
<stop stop-color="#9AABCF"/>
<stop offset="1" stop-color="#F2F1F7"/>
</linearGradient>
<linearGradient id="paint1_linear_47_2176" x1="145.368" y1="88.4762" x2="132.689" y2="20.7912" gradientUnits="userSpaceOnUse">
<stop stop-color="#9AABCF"/>
<stop offset="1" stop-color="#F2F1F7"/>
</linearGradient>
<linearGradient id="paint2_linear_47_2176" x1="159.643" y1="164.181" x2="156.689" y2="146.732" gradientUnits="userSpaceOnUse">
<stop stop-color="#0B0F27"/>
<stop offset="1" stop-color="#85DEDA"/>
</linearGradient>
<linearGradient id="paint3_linear_47_2176" x1="153.801" y1="153.887" x2="142.099" y2="91.4191" gradientUnits="userSpaceOnUse">
<stop stop-color="#9AABCF"/>
<stop offset="1" stop-color="#F2F1F7"/>
</linearGradient>
<linearGradient id="paint4_linear_47_2176" x1="143.521" y1="95.2664" x2="140.937" y2="80.0074" gradientUnits="userSpaceOnUse">
<stop stop-color="#0B0F27"/>
<stop offset="1" stop-color="#85DEDA"/>
</linearGradient>
<linearGradient id="paint5_linear_47_2176" x1="220.755" y1="177.802" x2="210.079" y2="120.808" gradientUnits="userSpaceOnUse">
<stop stop-color="#9AABCF"/>
<stop offset="1" stop-color="#F2F1F7"/>
</linearGradient>
<linearGradient id="paint6_linear_47_2176" x1="55.2309" y1="155.058" x2="94.3482" y2="116.533" gradientUnits="userSpaceOnUse">
<stop stop-color="#9AABCF"/>
<stop offset="1" stop-color="#F2F1F7"/>
</linearGradient>
<linearGradient id="paint7_linear_47_2176" x1="193.15" y1="117.59" x2="170.475" y2="106.339" gradientUnits="userSpaceOnUse">
<stop stop-color="#0B0F27"/>
<stop offset="1" stop-color="#85DEDA"/>
</linearGradient>
<linearGradient id="paint8_linear_47_2176" x1="186.108" y1="114.096" x2="170.476" y2="106.339" gradientUnits="userSpaceOnUse">
<stop stop-color="#0B0F27"/>
<stop offset="1" stop-color="#85DEDA"/>
</linearGradient>
</defs>
</svg>
