<svg width="190" height="276" viewBox="0 0 190 276" fill="none" xmlns="http://www.w3.org/2000/svg">
<path d="M135.188 243.26L134.75 244.542C129.324 257.872 87.3818 275.265 73.6983 271.593C60.2649 267.983 51.5231 253.652 47.4728 239.572C43.9229 227.242 45.002 211.427 49.4902 206.926C53.994 202.425 67.6306 191.673 90.4938 193.064C113.013 194.439 120.113 203.628 127.072 210.583C135.079 218.6 137.424 235.415 135.188 243.26Z" fill="url(#paint0_linear_47_2292)"/>
<path d="M135.188 243.26L134.75 244.542C134.75 244.542 100.393 261.279 73.0411 246.62C47.9729 233.196 49.5055 206.926 49.5055 206.926C54.0093 202.425 67.6459 191.673 90.5091 193.064C113.028 194.439 120.128 203.628 127.087 210.583C135.078 218.6 137.424 235.415 135.188 243.26Z" fill="#DEFCFF"/>
<path d="M176.989 247.151C176.989 247.151 177.255 256.325 171.688 268.233C171.688 268.233 179.679 271.327 182.322 270.374C184.964 269.421 188.983 252.762 188.983 252.762L181.649 242.619L176.989 247.151Z" fill="#385BBD"/>
<path d="M106.663 200.472C106.663 203.159 98.0936 205.347 87.5221 205.347C76.9506 205.347 68.3809 203.159 68.3809 200.472C68.3809 197.784 76.9506 195.596 87.5221 195.596C98.0936 195.596 106.663 197.768 106.663 200.472Z" fill="#1B4FDB"/>
<path d="M102.363 201.456C102.363 203.597 95.5289 205.347 87.0999 205.347C78.6709 205.347 71.8369 203.613 71.8369 201.456C71.8369 199.315 78.6709 197.565 87.0999 197.565C95.5289 197.565 102.363 199.315 102.363 201.456Z" fill="#6DFFE5"/>
<path d="M141.521 165.091C141.521 165.091 142.991 155.276 146.713 153.917C150.451 152.557 156.472 161.918 156.472 161.918L141.521 165.091Z" fill="#DEFCFF"/>
<path d="M38.7936 165.497L27.3933 161.027L25.3916 160.246C25.4072 160.246 25.4072 160.23 25.4072 160.23C25.6418 159.855 30.0675 153.432 35.0404 154.854C40.1854 156.339 38.7936 165.497 38.7936 165.497Z" fill="#DEFCFF"/>
<path d="M125.915 54.3686C118.283 54.3686 106.539 40.8976 106.539 25.0511C106.539 14.0024 114.671 7.89197 120.989 7.89197C127.307 7.89197 133.625 21.8631 133.625 36.1624C133.625 50.4617 128.855 54.3686 125.915 54.3686Z" fill="#5A77E5"/>
<path d="M148.042 65.3705C148.042 65.3705 147.824 78.9822 145.806 84.233C145.525 84.9519 145.228 85.5145 144.868 85.874C141.975 88.7494 124.773 101.377 97.1242 101.377C69.46 101.377 48.1763 90.6404 45.9869 86.0615C45.3614 84.7644 44.7984 83.436 44.3136 82.0764C35.4154 57.9005 45.7992 25.8481 57.528 17.2842C64.8936 11.9083 99.8139 2.93799 120.644 18.425C142.725 34.834 144.461 64.0109 144.461 64.0109L148.042 65.3705Z" fill="url(#paint1_linear_47_2292)"/>
<path d="M73.5264 180.171C73.5264 180.171 75.6688 203.691 85.865 203.691C96.1237 203.691 110.339 184.266 110.339 184.266L73.5264 180.171Z" fill="url(#paint2_linear_47_2292)"/>
<path d="M142.695 142.196C142.695 145.228 142.226 158.683 129.856 171.06C119.237 181.671 103.818 188.782 90.4629 188.782C79.5004 188.782 66.505 175.249 60.1246 160.746L60.0933 160.699C59.5147 159.371 58.983 158.027 58.5138 156.683C52.9622 140.758 52.3992 124.474 56.2463 119.552C57.3409 118.161 58.5295 116.879 59.8118 115.723C61.7666 113.926 63.9403 112.394 66.2391 111.081C87.5541 98.9699 121.474 106.206 126.29 110.519C126.822 111.003 127.338 111.519 127.854 112.066C135.767 120.458 141.663 136.383 142.57 141.18C142.648 141.618 142.695 141.946 142.695 142.196Z" fill="url(#paint3_linear_47_2292)"/>
<path d="M145.806 84.2331C145.525 84.9519 145.227 85.5145 144.868 85.874C141.975 88.7494 124.773 101.377 97.124 101.377C69.4599 101.377 48.1761 90.6404 45.9868 86.0615C45.3612 84.7644 44.7983 83.436 44.3135 82.0764C44.3135 82.0764 52.3047 87.3117 62.9074 86.2646C73.4946 85.202 115.749 73.4031 145.806 84.2331Z" fill="#878BC4"/>
<path d="M98.8757 98.9699C111.347 98.9699 121.457 96.703 121.457 93.9066C121.457 91.1101 111.347 88.8432 98.8757 88.8432C86.4041 88.8432 76.2939 91.1101 76.2939 93.9066C76.2939 96.703 86.4041 98.9699 98.8757 98.9699Z" fill="#1B4FDB"/>
<path d="M116.156 93.3752C116.156 95.6569 107.931 97.5009 97.7657 97.5009C87.6164 97.5009 79.375 95.6569 79.375 93.3752C79.375 91.0936 87.6164 89.2495 97.7657 89.2495C107.931 89.2339 116.156 91.0936 116.156 93.3752Z" fill="#85DEDA"/>
<path d="M79.375 93.3752C79.375 93.3752 86.0995 109.831 97.7657 109.831C109.526 109.831 116.156 93.3752 116.156 93.3752C112.09 88.0149 82.7216 87.7493 79.375 93.3752Z" fill="url(#paint4_linear_47_2292)"/>
<path d="M142.679 142.196C136.909 147.963 105.179 151.479 91.6359 144.196C78.0931 136.914 66.2236 111.097 66.2236 111.097C87.5386 98.9856 121.458 106.221 126.259 110.55C134.954 118.364 141.585 136.101 142.554 141.196L142.679 142.196Z" fill="#DEFCFF"/>
<path d="M47.9262 51.1962C56.3396 51.1962 69.2725 36.3499 69.2725 18.9095C69.2568 6.73552 60.3117 0 53.3527 0C46.3936 0 39.4189 15.3932 39.4189 31.1459C39.4189 46.8986 44.6734 51.1962 47.9262 51.1962Z" fill="#5A77E5"/>
<path d="M61.4066 24.973C60.8905 32.0523 58.3884 39.0379 55.2295 43.6324C52.8837 47.0705 50.1783 49.1802 47.6762 48.9927C41.8275 48.5551 40.3262 32.3023 40.9673 23.6446C41.7023 13.7367 46.9881 0.984528 53.0401 0.984528C56.3711 0.984528 59.186 5.61031 60.5778 12.1427C61.4066 15.9402 61.735 20.4097 61.4066 24.973Z" fill="#1BBDDB"/>
<path d="M61.407 24.973C60.8909 32.0523 58.3888 39.0379 55.2299 43.6324C51.6956 40.5538 50.7886 32.1305 51.3203 27.2234C51.9458 21.4412 55.7772 14.2524 60.5938 12.1271C61.407 15.9402 61.7354 20.4097 61.407 24.973Z" fill="#7CFFBF"/>
<path d="M33.2415 235.399L-10.7646 231.633C-10.2799 227.179 -9.48231 222.757 -8.43454 218.412V218.381C-1.91337 191.126 14.3505 167.075 25.4224 160.246C25.438 160.246 25.438 160.23 25.438 160.23C28.3468 158.433 30.8958 157.824 32.8193 158.683C35.5247 159.887 37.4795 162.278 38.8088 165.497C46.9876 185.063 33.2415 235.399 33.2415 235.399Z" fill="url(#paint5_linear_47_2292)"/>
<path d="M-10.7796 231.633C-13.8604 238.884 -5.18109 243.713 8.36168 245.089C21.9045 246.464 31.9599 240.385 33.2266 235.399C34.4933 230.414 24.7819 222.522 11.1766 222.522C-2.42875 222.522 -8.94993 227.335 -10.7796 231.633Z" fill="#385BBD"/>
<path d="M187.06 223.897L145.056 235.868C129.886 194.111 139.457 158.855 148.011 157.433C148.34 157.386 148.668 157.37 148.981 157.417C172.657 160.793 186.591 221.85 187.029 223.851L187.06 223.897Z" fill="url(#paint6_linear_47_2292)"/>
<path d="M187.061 223.897C184.371 213.536 145.197 227.351 145.04 235.868C144.884 244.401 189.516 233.337 187.061 223.897Z" fill="#385BBD"/>
<path d="M60.0931 160.746L60.0619 160.699L54.5728 151.338C54.5728 151.338 45.8154 132.054 55.3547 117.004V116.989C55.3547 116.989 59.5302 113.129 66.2077 111.081C66.2077 111.081 66.6143 111.957 67.1773 113.535C69.7576 120.677 75.403 142.008 60.0931 160.746Z" fill="#5A77E5"/>
<path d="M59.6547 148.838C59.6391 148.838 59.6391 148.838 59.6547 148.838C58.2004 150.869 56.4802 151.557 55.3698 151.135C52.8521 150.182 46.2527 127.272 55.3698 117.004C55.3698 117.004 56.011 117.489 56.9024 118.739C58.4506 120.927 60.7807 125.474 61.8754 133.96C62.8606 141.462 61.4844 146.244 59.6547 148.838Z" fill="#1B4FDB"/>
<path d="M59.6555 148.838C59.6399 148.838 59.6399 148.838 59.6555 148.838C58.5296 147.728 56.2464 145.118 55.2924 138.899C53.7286 128.756 56.9032 118.739 56.9032 118.739C58.4514 120.927 60.7815 125.474 61.8762 133.96C62.8614 141.462 61.4852 146.244 59.6555 148.838Z" fill="#85DEDA"/>
<path d="M58.5289 121.552C58.5289 121.552 46.1434 136.836 47.5821 144.9C49.0208 152.963 60.859 146.603 60.859 146.603C60.859 146.603 63.6427 139.117 58.5289 121.552Z" fill="url(#paint7_linear_47_2292)"/>
<path d="M-4.52442 230.711C-4.52442 230.711 12.0053 223.679 21.9043 228.758L26.33 237.728L22.4204 252.762C22.4204 252.762 4.71782 260.107 -10.7797 254.371L-11.4053 246.042C-11.3896 246.073 -9.01261 237.54 -4.52442 230.711Z" fill="#3872E0"/>
<path d="M24.8129 263.248C24.8129 263.248 29.7233 266.498 35.7128 264.154C35.7128 264.154 37.3079 245.151 25.1882 235.399C25.1882 235.399 21.1379 237.79 21.7947 245.292C22.4359 252.777 24.8129 257.309 24.8129 263.248Z" fill="#4D81E3"/>
<path d="M-10.7798 248.542C-10.7798 248.542 -13.063 262.982 -11.4053 267.545C-9.74769 272.109 3.70126 273.953 3.70126 273.953L-3.24215 247.636C-3.22651 247.636 -6.60439 246.073 -10.7798 248.542Z" fill="#427AE3"/>
<path d="M-4.13344 246.464C-4.13344 246.464 -7.65205 258.044 -4.13344 265.014C-0.614816 271.968 5.28083 276 5.28083 276C5.28083 276 12.146 274.437 13.0531 270.53C13.9601 266.623 6.29731 246.464 6.29731 246.464H-4.13344Z" fill="#4D81E3"/>
<path d="M19.4331 243.51C18.5418 241.15 9.28387 240.728 6.8443 245.073C4.42036 249.417 5.3743 267.358 5.96855 267.967C6.57845 268.577 13.6 272.734 18.2915 270.577C22.983 268.405 23.6711 262.42 22.8892 259.997C22.1229 257.559 20.2151 245.589 19.4331 243.51Z" fill="#69A7FF"/>
<path d="M5.98446 267.967C5.62478 266.014 14.2884 258.309 23.0615 260.669C23.0615 260.669 25.329 268.686 17.4317 271.187C9.53435 273.703 5.98446 267.967 5.98446 267.967Z" fill="#385BBD"/>
<path d="M155.815 231.696C155.815 231.696 169.123 220.678 182.009 226.695C182.009 226.695 187.67 233.649 190 244.026C190 244.026 184.949 247.745 178.897 249.949C172.845 252.152 159.193 250.511 159.193 250.511C159.193 250.511 155.518 239.9 155.815 231.696Z" fill="#3872E0"/>
<path d="M161.663 230.649C156.612 230.258 153.829 245.229 163.728 260.341C163.728 260.341 170.202 264.014 174.878 258.622C174.878 258.622 174.972 231.696 161.663 230.649Z" fill="#4D81E3"/>
<path d="M133.624 32.3649C133.624 32.3649 112.043 18.9095 81.2514 32.3649C81.2514 32.3649 69.2568 40.2412 69.2568 55.572C69.2568 55.572 85.1766 57.9317 95.0444 53.7279C95.0444 53.7279 103.708 41.1164 118.392 41.1164C133.077 41.1164 138.081 55.572 138.081 55.572L144.039 58.3224C144.07 58.3224 140.005 38.741 133.624 32.3649Z" fill="#0B1E7D"/>
<path d="M144.461 63.9796C110.245 50.3523 51.1787 73.2781 51.1787 73.2781C42.8904 68.5116 44.6419 48.9927 44.6419 48.9927C44.6419 62.8857 52.4298 70.4495 52.4298 70.4495C113.169 45.5546 144.461 63.9796 144.461 63.9796Z" fill="#DEFCFF"/>
<path d="M144.461 63.9796C110.245 50.3523 51.1787 73.2781 51.1787 73.2781L52.4454 70.4495C113.169 45.5546 144.461 63.9796 144.461 63.9796Z" fill="#DEFCFF"/>
<path d="M35.0556 154.87L32.788 158.683C30.9896 159.09 29.1912 159.887 27.3928 161.027C8.89269 172.623 -8.4502 218.412 -8.4502 218.412V218.381C-1.92902 191.126 14.3348 167.075 25.4067 160.246C25.4224 160.246 25.4224 160.23 25.4224 160.23C25.657 159.855 30.0826 153.432 35.0556 154.87Z" fill="#DEFCFF"/>
<path d="M127.838 112.082C100.768 99.345 69.1787 109.8 66.2231 111.097C66.0667 111.16 66.9737 112.629 66.9737 112.629L61.9695 113.566L55.3701 117.004V116.989C55.3701 116.989 59.5455 113.129 66.2231 111.081C87.5381 98.9699 121.458 106.206 126.274 110.519C126.79 111.019 127.322 111.535 127.838 112.082Z" fill="white"/>
<path d="M187.029 223.851C171.688 168.763 151.139 159.902 147.996 157.433C148.324 157.386 148.653 157.37 148.966 157.417C172.658 160.809 186.591 221.85 187.029 223.851Z" fill="#DEFCFF"/>
<path d="M68.3965 12.6428L69.1002 16.0965C69.1002 16.0965 100.377 5.68846 120.66 18.4094C120.644 18.4094 105.068 3.46934 68.3965 12.6428Z" fill="white"/>
<path d="M80.251 39.6317L104.162 37.1782C104.162 37.1782 98.6416 46.7267 89.7903 46.7267C80.9391 46.7267 80.251 39.6317 80.251 39.6317Z" fill="#85DEDA"/>
<path d="M129.011 37.7095C129.011 37.7095 136.423 39.1473 138.879 41.2101C138.879 41.2101 141.662 46.7736 138.206 46.5704C134.124 46.336 129.011 37.7095 129.011 37.7095Z" fill="#85DEDA"/>
<path d="M174.863 257.622C174.863 257.622 169.061 260.654 163.729 260.341C163.729 260.341 170.187 263.935 175.16 259.888L174.863 257.622Z" fill="#385BBD"/>
<defs>
<linearGradient id="paint0_linear_47_2292" x1="89.9418" y1="272.311" x2="91.3246" y2="193.033" gradientUnits="userSpaceOnUse">
<stop stop-color="#9AB5D8"/>
<stop offset="1" stop-color="#E3FFFF"/>
</linearGradient>
<linearGradient id="paint1_linear_47_2292" x1="93.8417" y1="101.33" x2="95.4376" y2="9.84006" gradientUnits="userSpaceOnUse">
<stop stop-color="#9AB5D8"/>
<stop offset="1" stop-color="#E3FFFF"/>
</linearGradient>
<linearGradient id="paint2_linear_47_2292" x1="91.9319" y1="203.681" x2="91.9319" y2="180.165" gradientUnits="userSpaceOnUse">
<stop stop-color="#0B0F27"/>
<stop offset="1" stop-color="#85DEDA"/>
</linearGradient>
<linearGradient id="paint3_linear_47_2292" x1="97.3071" y1="188.899" x2="98.78" y2="104.46" gradientUnits="userSpaceOnUse">
<stop stop-color="#9AB5D8"/>
<stop offset="1" stop-color="#E3FFFF"/>
</linearGradient>
<linearGradient id="paint4_linear_47_2292" x1="97.7708" y1="109.816" x2="97.7708" y2="89.2517" gradientUnits="userSpaceOnUse">
<stop stop-color="#0B0F27"/>
<stop offset="1" stop-color="#85DEDA"/>
</linearGradient>
<linearGradient id="paint5_linear_47_2292" x1="14.8353" y1="235.083" x2="16.1791" y2="158.044" gradientUnits="userSpaceOnUse">
<stop stop-color="#9AB5D8"/>
<stop offset="1" stop-color="#E3FFFF"/>
</linearGradient>
<linearGradient id="paint6_linear_47_2292" x1="144.205" y1="235.461" x2="176.242" y2="169.908" gradientUnits="userSpaceOnUse">
<stop stop-color="#9AB5D8"/>
<stop offset="1" stop-color="#E3FFFF"/>
</linearGradient>
<linearGradient id="paint7_linear_47_2292" x1="46.1174" y1="143.933" x2="64.8813" y2="130.291" gradientUnits="userSpaceOnUse">
<stop stop-color="#0B0F27"/>
<stop offset="1" stop-color="#85DEDA"/>
</linearGradient>
</defs>
</svg>
